<svg width="41" height="41" viewBox="0 0 41 41" fill="none" xmlns="http://www.w3.org/2000/svg">
<circle id="Ellipse 92" cx="20.9658" cy="20.7739" r="20" fill="#9B9B9B"/>
    <g id="Img_box_fill" transform="translate(8, 8) scale(1)">
        <path id="Subtract" fill-rule="evenodd" clip-rule="evenodd" d="M4.13739 3.94531C2.96582 5.11688 2.96582 7.0025 2.96582 10.7737V14.7737C2.96582 18.545 2.96582 20.4306 4.13739 21.6022C5.30897 22.7737 7.19458 22.7737 10.9658 22.7737H14.9658C18.7371 22.7737 20.6227 22.7737 21.7942 21.6022C22.9658 20.4306 22.9658 18.545 22.9658 14.7738V14.7737V10.7737C22.9658 7.9344 22.9658 6.16392 22.4658 4.9623V17.7737C21.5054 17.7737 20.5843 17.3922 19.9052 16.7131L19.1535 15.9614C18.4322 15.2401 18.0715 14.8795 17.6626 14.7275C17.2131 14.5604 16.7185 14.5604 16.269 14.7275C15.8601 14.8795 15.4995 15.2401 14.7781 15.9614L14.665 16.0745C14.0797 16.6599 13.787 16.9526 13.476 17.0072C13.2343 17.0496 12.9855 17.0016 12.7768 16.8725C12.5084 16.7063 12.3453 16.3259 12.0192 15.565L11.9658 15.4404C11.2162 13.6912 10.8414 12.8167 10.1875 12.4889C9.85831 12.3238 9.48995 12.2529 9.12302 12.2839C8.39418 12.3454 7.72136 13.0182 6.37571 14.3638L4.46582 16.2737V3.66113C4.35022 3.74723 4.24101 3.84169 4.13739 3.94531Z" fill="#F9F9F9"/>
        <path id="Rectangle 1" d="M3.96582 10.7739C3.96582 8.86004 3.96794 7.52522 4.10335 6.51809C4.23489 5.53972 4.47548 5.02162 4.8445 4.65261C5.21352 4.28359 5.73161 4.04299 6.70998 3.91146C7.71711 3.77605 9.05193 3.77393 10.9658 3.77393H14.9658C16.8797 3.77393 18.2145 3.77605 19.2217 3.91146C20.2 4.04299 20.7181 4.28359 21.0871 4.65261C21.4562 5.02162 21.6968 5.53972 21.8283 6.51809C21.9637 7.52522 21.9658 8.86004 21.9658 10.7739V14.7739C21.9658 16.6878 21.9637 18.0226 21.8283 19.0298C21.6968 20.0081 21.4562 20.5262 21.0871 20.8952C20.7181 21.2643 20.2 21.5049 19.2217 21.6364C18.2145 21.7718 16.8797 21.7739 14.9658 21.7739H10.9658C9.05193 21.7739 7.71711 21.7718 6.70998 21.6364C5.73161 21.5049 5.21352 21.2643 4.8445 20.8952C4.47548 20.5262 4.23489 20.0081 4.10335 19.0298C3.96794 18.0226 3.96582 16.6878 3.96582 14.7739V10.7739Z" stroke="#F9F9F9" stroke-width="2"/>
        <circle id="Ellipse 46" cx="15.9658" cy="9.77393" r="2" fill="#F9F9F9"/>
    </g>
</svg>
