<svg width="37" height="37" viewBox="0 0 37 37" fill="none" xmlns="http://www.w3.org/2000/svg">
<g id="Done_ring_round_fill">
<path id="Subtract" fill-rule="evenodd" clip-rule="evenodd" d="M18.5 32C25.9558 32 32 25.9558 32 18.5C32 15.5656 31.0638 12.8498 29.4737 10.6352L18.355 22.9893C17.6624 23.7589 16.4968 23.8726 15.6684 23.2513L10.4 19.3C9.95818 18.9686 9.86863 18.3418 10.2 17.9C10.5314 17.4582 11.1582 17.3686 11.6 17.7L16.8684 21.6513L28.1767 9.08661C25.7241 6.56581 22.2949 5 18.5 5C11.0442 5 5 11.0442 5 18.5C5 25.9558 11.0442 32 18.5 32Z" fill="#8A8A8A"/>
</g>
</svg>
