<svg width="43" height="43" viewBox="0 0 43 43" fill="none" xmlns="http://www.w3.org/2000/svg">
<g id="[button] sns">
<path id="Vector" d="M32.3798 0.392578H10.0277C4.58151 0.392578 0.166504 4.80759 0.166504 10.2538V32.6058C0.166504 38.052 4.58151 42.467 10.0277 42.467H32.3798C37.826 42.467 42.241 38.052 42.241 32.6058V10.2538C42.241 4.80759 37.826 0.392578 32.3798 0.392578Z" fill="url(#paint0_radial_1719_3829)"/>
<path id="Vector_2" d="M32.3798 0.392578H10.0277C4.58151 0.392578 0.166504 4.80759 0.166504 10.2538V32.6058C0.166504 38.052 4.58151 42.467 10.0277 42.467H32.3798C37.826 42.467 42.241 38.052 42.241 32.6058V10.2538C42.241 4.80759 37.826 0.392578 32.3798 0.392578Z" fill="url(#paint1_radial_1719_3829)"/>
<path id="Vector_3" d="M21.2054 4.99414C16.7419 4.99414 16.1816 5.0137 14.4286 5.09341C12.6789 5.17361 11.4845 5.45055 10.4396 5.857C9.35845 6.27675 8.44152 6.83835 7.52805 7.75215C6.61375 8.66579 6.05215 9.58272 5.63108 10.6633C5.22348 11.7086 4.94622 12.9035 4.8675 14.6524C4.7891 16.4055 4.76855 16.966 4.76855 21.4296C4.76855 25.8933 4.78828 26.4518 4.86782 28.2048C4.94836 29.9545 5.22529 31.1488 5.63141 32.1938C6.0515 33.2749 6.61309 34.1918 7.5269 35.1053C8.44021 36.0196 9.35714 36.5825 10.4374 37.0023C11.4832 37.4087 12.6777 37.6857 14.4271 37.7659C16.1803 37.8456 16.7401 37.8651 21.2034 37.8651C25.6674 37.8651 26.2259 37.8456 27.9789 37.7659C29.7286 37.6857 30.9242 37.4087 31.97 37.0023C33.0506 36.5825 33.9663 36.0196 34.8794 35.1053C35.7937 34.1918 36.3551 33.2749 36.7764 32.1943C37.1804 31.1488 37.4578 29.9542 37.54 28.2051C37.6187 26.4521 37.6392 25.8933 37.6392 21.4296C37.6392 16.966 37.6187 16.4059 37.54 14.6527C37.4578 12.903 37.1804 11.7088 36.7764 10.6638C36.3551 9.58272 35.7937 8.66579 34.8794 7.75215C33.9653 6.83802 33.051 6.27643 31.969 5.85716C30.9213 5.45055 29.7263 5.17345 27.9766 5.09341C26.2234 5.0137 25.6653 4.99414 21.2003 4.99414H21.2054ZM19.731 7.95595C20.1686 7.9553 20.6569 7.95595 21.2054 7.95595C25.5938 7.95595 26.1138 7.97173 27.8467 8.05046C29.4492 8.12376 30.3189 8.39149 30.8983 8.61649C31.6653 8.9143 32.2121 9.27045 32.787 9.84585C33.3623 10.4211 33.7183 10.9689 34.0169 11.7359C34.2419 12.3144 34.5099 13.1842 34.5829 14.7866C34.6616 16.5193 34.6787 17.0396 34.6787 21.4259C34.6787 25.8121 34.6616 26.3326 34.5829 28.0651C34.5096 29.6675 34.2419 30.5373 34.0169 31.116C33.7191 31.883 33.3623 32.4292 32.787 33.0041C32.2118 33.5793 31.6656 33.9353 30.8983 34.2333C30.3196 34.4592 29.4492 34.7263 27.8467 34.7996C26.1141 34.8784 25.5938 34.8954 21.2054 34.8954C16.8168 34.8954 16.2966 34.8784 14.5642 34.7996C12.9617 34.7257 12.092 34.4579 11.5121 34.2329C10.7453 33.935 10.1973 33.579 9.62207 33.0037C9.04684 32.4285 8.69085 31.882 8.39222 31.1147C8.16722 30.536 7.89916 29.6662 7.82618 28.0638C7.74746 26.3312 7.73168 25.8108 7.73168 21.4218C7.73168 17.0329 7.74746 16.5151 7.82618 14.7825C7.89949 13.1801 8.16722 12.3103 8.39222 11.731C8.69019 10.9639 9.04684 10.4162 9.62224 9.84092C10.1975 9.26569 10.7453 8.90953 11.5123 8.61107C12.0916 8.38508 12.9617 8.118 14.5642 8.04437C16.0803 7.97584 16.6679 7.9553 19.731 7.95184V7.95595ZM29.9786 10.6849C28.8897 10.6849 28.0063 11.5675 28.0063 12.6565C28.0063 13.7453 28.8897 14.6287 29.9786 14.6287C31.0674 14.6287 31.9508 13.7453 31.9508 12.6565C31.9508 11.5676 31.0674 10.6842 29.9786 10.6842V10.6849ZM21.2054 12.9893C16.5443 12.9893 12.7652 16.7684 12.7652 21.4296C12.7652 26.0909 16.5443 29.8682 21.2054 29.8682C25.8666 29.8682 29.6444 26.0909 29.6444 21.4296C29.6444 16.7686 25.8663 12.9893 21.205 12.9893H21.2054ZM21.2054 15.9511C24.231 15.9511 26.6839 18.4037 26.6839 21.4296C26.6839 24.4552 24.231 26.9082 21.2054 26.9082C18.1796 26.9082 15.727 24.4552 15.727 21.4296C15.727 18.4037 18.1796 15.9511 21.2054 15.9511Z" fill="white"/>
</g>
<defs>
<radialGradient id="paint0_radial_1719_3829" cx="0" cy="0" r="1" gradientUnits="userSpaceOnUse" gradientTransform="translate(11.3425 45.7076) rotate(-90) scale(41.6989 38.7833)">
<stop stop-color="#FFDD55"/>
<stop offset="0.1" stop-color="#FFDD55"/>
<stop offset="0.5" stop-color="#FF543E"/>
<stop offset="1" stop-color="#C837AB"/>
</radialGradient>
<radialGradient id="paint1_radial_1719_3829" cx="0" cy="0" r="1" gradientUnits="userSpaceOnUse" gradientTransform="translate(-6.88113 3.42342) rotate(78.681) scale(18.6396 76.8332)">
<stop stop-color="#3771C8"/>
<stop offset="0.128" stop-color="#3771C8"/>
<stop offset="1" stop-color="#6600FF" stop-opacity="0"/>
</radialGradient>
</defs>
</svg>
