<svg width="520" height="135" viewBox="0 0 1314 790" fill="none" xmlns="http://www.w3.org/2000/svg">
    <g transform="translate(237.56, 198.82)">
    <path d="M6.595 25.9171H44.003V33.0291H6.595V25.9171ZM1.331 40.5891H48.875V47.8131H1.331V40.5891ZM20.595 29.5011H29.611V43.7251H20.595V29.5011ZM6.595 3.79714H43.667V10.9651H15.779V28.6051H6.595V3.79714ZM13.035 14.8851H42.435V21.8291H13.035V14.8851ZM52.8466 25.6931H100.391V32.7491H52.8466V25.6931ZM72.0546 17.4051H81.0706V27.7091H72.0546V17.4051ZM58.0546 35.4371H94.9026V53.1891H85.8866V42.4931H58.0546V35.4371ZM58.5026 14.8851H95.3506V21.9971H58.5026V14.8851ZM58.5026 2.73314H94.9026V9.78914H67.4626V18.7491H58.5026V2.73314ZM107.33 60.5811L105.314 55.2611C107.741 54.4025 109.589 53.2638 110.858 51.8451C112.128 50.4265 112.744 48.9145 112.706 47.3091L112.594 40.7571L115.73 46.2451C115.245 46.6558 114.704 46.9731 114.106 47.1971C113.509 47.3838 112.874 47.4771 112.202 47.4771C110.672 47.4771 109.29 46.9918 108.058 46.0211C106.864 45.0505 106.266 43.6691 106.266 41.8771C106.266 40.1971 106.864 38.8531 108.058 37.8451C109.29 36.7998 110.765 36.2771 112.482 36.2771C114.685 36.2771 116.365 37.0985 117.522 38.7411C118.68 40.3838 119.258 42.6611 119.258 45.5731C119.258 49.1945 118.232 52.2931 116.178 54.8691C114.162 57.4825 111.213 59.3865 107.33 60.5811ZM155.888 16.3411H164.904V23.2291H155.888V16.3411ZM154.208 4.63714H162.048V5.81314C162.048 7.15714 161.805 8.46381 161.32 9.73314C160.835 10.9651 160.069 12.1225 159.024 13.2051C158.016 14.2505 156.691 15.2025 155.048 16.0611C153.405 16.8825 151.427 17.5545 149.112 18.0771C146.835 18.5998 144.203 18.9545 141.216 19.1411L138.472 12.4211C141.011 12.3091 143.176 12.0851 144.968 11.7491C146.797 11.4131 148.309 11.0211 149.504 10.5731C150.699 10.0878 151.632 9.58381 152.304 9.06114C153.013 8.50114 153.499 7.94114 153.76 7.38114C154.059 6.82114 154.208 6.29847 154.208 5.81314V4.63714ZM158.968 4.63714H166.808V5.81314C166.808 6.29847 166.939 6.82114 167.2 7.38114C167.499 7.94114 167.984 8.50114 168.656 9.06114C169.365 9.58381 170.317 10.0878 171.512 10.5731C172.707 11.0211 174.2 11.4131 175.992 11.7491C177.821 12.0851 180.005 12.3091 182.544 12.4211L179.8 19.1411C176.813 18.9918 174.163 18.6558 171.848 18.1331C169.571 17.5731 167.611 16.8825 165.968 16.0611C164.325 15.2398 162.981 14.3065 161.936 13.2611C160.928 12.1785 160.181 11.0211 159.696 9.78914C159.211 8.51981 158.968 7.19447 158.968 5.81314V4.63714ZM141.048 1.72514H180.024V8.50114H141.048V1.72514ZM140.936 31.7971H179.912V38.4611H140.936V31.7971ZM136.792 20.3171H184.336V27.3731H136.792V20.3171ZM160.368 39.4131C165.483 39.4131 169.459 40.0105 172.296 41.2051C175.133 42.3998 176.552 44.1171 176.552 46.3571C176.552 48.5971 175.133 50.2958 172.296 51.4531C169.459 52.6478 165.483 53.2451 160.368 53.2451C155.291 53.2451 151.315 52.6478 148.44 51.4531C145.603 50.2958 144.184 48.5971 144.184 46.3571C144.184 44.1171 145.603 42.3998 148.44 41.2051C151.315 40.0105 155.291 39.4131 160.368 39.4131ZM160.368 45.2371C158.016 45.2371 156.299 45.3118 155.216 45.4611C154.133 45.5731 153.592 45.8718 153.592 46.3571C153.592 46.8051 154.133 47.1038 155.216 47.2531C156.299 47.3651 158.016 47.4211 160.368 47.4211C162.72 47.4211 164.437 47.3651 165.52 47.2531C166.64 47.1038 167.2 46.8051 167.2 46.3571C167.2 45.8718 166.64 45.5731 165.52 45.4611C164.437 45.3118 162.72 45.2371 160.368 45.2371ZM155.888 28.7171H164.904V35.6611H155.888V28.7171ZM188.252 26.9811H235.796V34.0931H188.252V26.9811ZM193.796 45.2371H230.42V52.4051H193.796V45.2371ZM193.796 37.0051H202.812V47.5891H193.796V37.0051ZM212.052 2.06114C215.897 2.06114 219.257 2.50914 222.132 3.40514C225.044 4.30114 227.302 5.57047 228.908 7.21314C230.55 8.85581 231.372 10.7971 231.372 13.0371C231.372 15.3145 230.55 17.2745 228.908 18.9171C227.302 20.5598 225.044 21.8291 222.132 22.7251C219.257 23.6211 215.897 24.0691 212.052 24.0691C208.206 24.0691 204.828 23.6211 201.916 22.7251C199.041 21.8291 196.782 20.5598 195.14 18.9171C193.534 17.2745 192.732 15.3145 192.732 13.0371C192.732 10.7971 193.534 8.85581 195.14 7.21314C196.782 5.57047 199.041 4.30114 201.916 3.40514C204.828 2.50914 208.206 2.06114 212.052 2.06114ZM212.052 9.17314C209.924 9.17314 208.113 9.32247 206.62 9.62114C205.126 9.88247 203.988 10.2931 203.204 10.8531C202.457 11.4131 202.084 12.1411 202.084 13.0371C202.084 13.9331 202.457 14.6798 203.204 15.2771C203.988 15.8371 205.126 16.2665 206.62 16.5651C208.113 16.8265 209.924 16.9571 212.052 16.9571C214.217 16.9571 216.028 16.8265 217.484 16.5651C218.977 16.2665 220.097 15.8371 220.844 15.2771C221.628 14.6798 222.02 13.9331 222.02 13.0371C222.02 12.1411 221.628 11.4131 220.844 10.8531C220.097 10.2931 218.977 9.88247 217.484 9.62114C216.028 9.32247 214.217 9.17314 212.052 9.17314ZM258.332 2.62114H291.316V9.73314H258.332V2.62114ZM252.62 18.5251H300.164V25.6371H252.62V18.5251ZM285.996 2.62114H294.9V6.31714C294.9 8.18381 294.844 10.3118 294.732 12.7011C294.62 15.0531 294.228 17.7038 293.556 20.6531L284.652 19.8691C285.324 16.9945 285.716 14.4745 285.828 12.3091C285.94 10.1438 285.996 8.14647 285.996 6.31714V2.62114ZM257.716 28.3251H294.62V43.8931H266.788V48.1491H257.772V37.3411H285.604V35.2131H257.716V28.3251ZM257.772 46.0211H295.964V52.9651H257.772V46.0211ZM327.936 1.27714C334.021 1.27714 338.744 2.04247 342.104 3.57314C345.501 5.1038 347.2 7.30647 347.2 10.1811C347.2 13.0558 345.501 15.2585 342.104 16.7891C338.744 18.3198 334.021 19.0851 327.936 19.0851C321.813 19.0851 317.053 18.3198 313.656 16.7891C310.258 15.2585 308.56 13.0558 308.56 10.1811C308.56 7.30647 310.258 5.1038 313.656 3.57314C317.053 2.04247 321.813 1.27714 327.936 1.27714ZM327.88 7.82914C325.528 7.82914 323.624 7.90381 322.168 8.05314C320.712 8.20247 319.648 8.44514 318.976 8.78114C318.304 9.11714 317.968 9.58381 317.968 10.1811C317.968 10.7785 318.304 11.2638 318.976 11.6371C319.648 11.9731 320.712 12.2158 322.168 12.3651C323.624 12.4771 325.528 12.5331 327.88 12.5331C330.232 12.5331 332.136 12.4771 333.592 12.3651C335.048 12.2158 336.112 11.9731 336.784 11.6371C337.456 11.2638 337.792 10.7785 337.792 10.1811C337.792 9.58381 337.456 9.11714 336.784 8.78114C336.112 8.44514 335.048 8.20247 333.592 8.05314C332.136 7.90381 330.232 7.82914 327.88 7.82914ZM304.08 20.9331H351.624V27.9891H304.08V20.9331ZM309.344 30.1171H346.024V44.5091H318.304V48.2051H309.4V38.3491H337.12V36.7251H309.344V30.1171ZM309.4 46.2451H347.312V52.9651H309.4V46.2451ZM369.568 4.69314H395.104V30.6771H369.568V4.69314ZM386.2 11.8051H378.472V23.5651H386.2V11.8051ZM401.04 0.661138H410.056V38.8531H401.04V0.661138ZM407.592 15.3331H416.608V22.7251H407.592V15.3331ZM375.56 45.2371H411.68V52.4051H375.56V45.2371ZM375.56 35.0451H384.632V48.9891H375.56V35.0451ZM459.22 19.8691H468.236V27.2611H459.22V19.8691ZM452.444 0.549139H461.516V53.0771H452.444V0.549139ZM421.252 5.53314H430.268V38.2371H421.252V5.53314ZM421.252 33.0851H425.956C429.614 33.0851 433.46 32.9358 437.492 32.6371C441.561 32.3385 445.686 31.7785 449.868 30.9571L450.764 38.2931C446.47 39.1891 442.214 39.7865 437.996 40.0851C433.777 40.3838 429.764 40.5331 425.956 40.5331H421.252V33.0851ZM477.023 13.9331H513.871V21.0451H477.023V13.9331ZM471.479 25.6371H519.023V32.7491H471.479V25.6371ZM477.023 2.45314H486.039V17.4611H477.023V2.45314ZM476.463 44.9571H514.151V52.1251H476.463V44.9571ZM476.463 36.3331H485.535V46.8611H476.463V36.3331ZM10.235 85.9731H17.123V94.1491C17.123 97.2851 16.9363 100.346 16.563 103.333C16.1897 106.32 15.555 109.138 14.659 111.789C13.8003 114.402 12.6243 116.773 11.131 118.901C9.675 120.992 7.84567 122.709 5.643 124.053L0.0990025 117.389C2.15234 116.157 3.83234 114.682 5.139 112.965C6.44567 111.21 7.47234 109.306 8.219 107.253C8.96567 105.2 9.48834 103.072 9.787 100.869C10.0857 98.6291 10.235 96.3891 10.235 94.1491V85.9731ZM12.083 85.9731H19.027V93.4771C19.027 95.7918 19.139 98.0505 19.363 100.253C19.6243 102.418 20.0723 104.453 20.707 106.357C21.3417 108.224 22.2563 109.922 23.451 111.453C24.6457 112.984 26.1763 114.253 28.043 115.261L22.891 122.429C20.651 121.197 18.8217 119.592 17.403 117.613C15.9843 115.634 14.883 113.394 14.099 110.893C13.3523 108.354 12.8297 105.61 12.531 102.661C12.2323 99.7118 12.083 96.6505 12.083 93.4771V85.9731ZM38.123 81.6051H46.691V134.133H38.123V81.6051ZM32.915 101.653H40.867V108.877H32.915V101.653ZM26.923 82.2771H35.323V131.949H26.923V82.2771ZM52.8466 121.477H100.391V128.757H52.8466V121.477ZM72.0546 112.237H81.0706V124.389H72.0546V112.237ZM57.9986 84.7411H95.3506V103.109H67.0146V111.005H58.0546V96.1091H86.3906V91.8531H57.9986V84.7411ZM58.0546 107.533H96.5266V114.701H58.0546V107.533ZM104.362 106.581H151.906V113.637H104.362V106.581ZM123.962 111.229H133.146V121.757H123.962V111.229ZM109.626 126.237H146.754V133.405H109.626V126.237ZM109.626 117.445H118.754V127.973H109.626V117.445ZM128.106 82.3891C131.914 82.3891 135.256 82.8558 138.13 83.7891C141.005 84.6851 143.245 85.9731 144.85 87.6531C146.456 89.2958 147.258 91.2371 147.258 93.4771C147.258 95.7171 146.456 97.6771 144.85 99.3571C143.245 101 141.005 102.288 138.13 103.221C135.256 104.117 131.914 104.565 128.106 104.565C124.298 104.565 120.957 104.117 118.082 103.221C115.208 102.288 112.968 101 111.362 99.3571C109.757 97.6771 108.954 95.7171 108.954 93.4771C108.954 91.2371 109.757 89.2958 111.362 87.6531C112.968 85.9731 115.208 84.6851 118.082 83.7891C120.957 82.8558 124.298 82.3891 128.106 82.3891ZM128.106 89.5011C126.165 89.5011 124.485 89.6505 123.066 89.9491C121.648 90.2105 120.565 90.6398 119.818 91.2371C119.072 91.7971 118.698 92.5438 118.698 93.4771C118.698 94.3731 119.072 95.1198 119.818 95.7171C120.565 96.3145 121.648 96.7625 123.066 97.0611C124.485 97.3225 126.165 97.4531 128.106 97.4531C130.085 97.4531 131.765 97.3225 133.146 97.0611C134.565 96.7625 135.648 96.3145 136.394 95.7171C137.141 95.1198 137.514 94.3731 137.514 93.4771C137.514 92.5438 137.141 91.7971 136.394 91.2371C135.648 90.6398 134.565 90.2105 133.146 89.9491C131.765 89.6505 130.085 89.5011 128.106 89.5011ZM192.979 113.245C196.637 113.245 199.811 113.674 202.499 114.533C205.187 115.354 207.259 116.549 208.715 118.117C210.208 119.685 210.955 121.57 210.955 123.773C210.955 125.976 210.208 127.861 208.715 129.429C207.259 130.997 205.187 132.192 202.499 133.013C199.811 133.872 196.637 134.301 192.979 134.301C189.283 134.301 186.072 133.872 183.347 133.013C180.621 132.192 178.512 130.997 177.019 129.429C175.563 127.861 174.835 125.976 174.835 123.773C174.835 121.57 175.563 119.685 177.019 118.117C178.512 116.549 180.621 115.354 183.347 114.533C186.072 113.674 189.283 113.245 192.979 113.245ZM192.979 120.301C190.925 120.301 189.227 120.413 187.883 120.637C186.539 120.861 185.531 121.234 184.859 121.757C184.187 122.242 183.851 122.914 183.851 123.773C183.851 124.632 184.187 125.322 184.859 125.845C185.531 126.368 186.539 126.76 187.883 127.021C189.227 127.245 190.925 127.357 192.979 127.357C194.995 127.357 196.656 127.245 197.963 127.021C199.307 126.76 200.315 126.368 200.987 125.845C201.659 125.322 201.995 124.632 201.995 123.773C201.995 122.914 201.659 122.242 200.987 121.757C200.315 121.234 199.307 120.861 197.963 120.637C196.656 120.413 194.995 120.301 192.979 120.301ZM201.267 81.6611H210.283V112.237H201.267V81.6611ZM207.819 93.3091H216.835V100.701H207.819V93.3091ZM169.795 84.9651H178.755V90.7331H186.595V84.9651H195.555V109.941H169.795V84.9651ZM178.755 97.6211V102.941H186.595V97.6211H178.755ZM222.15 84.2931H231.11V90.1731H238.782V84.2931H247.63V109.157H222.15V84.2931ZM231.11 96.9491V101.989H238.782V96.9491H231.11ZM245.726 93.0851H257.374V100.309H245.726V93.0851ZM255.47 81.6611H264.542V110.445H255.47V81.6611ZM228.982 112.461H237.942V116.269H255.582V112.461H264.542V133.573H228.982V112.461ZM237.942 123.157V126.461H255.582V123.157H237.942Z" fill="#F9F9F9"/>
    </g>
</svg>
