<svg width="1440" height="1040" viewBox="0 0 1440 1040" fill="none" xmlns="http://www.w3.org/2000/svg" xmlns:xlink="http://www.w3.org/1999/xlink">
    <path d="M795.18 98.28C457.366 176.53 120.726 65.6759 -5.36798 0.467773V924.794C218.961 928.054 745.915 892.516 1059.1 724.279C1450.57 513.982 1217.45 0.467773 795.18 98.28Z" fill="#869F58"/>
    <svg  width="734.66" height="316.97" viewBox="0 0 734.66 316.97" fill="none" xmlns="http://www.w3.org/2000/svg">
        <g transform="translate(214.66, 182.97)">
            <path d="M7.11594 25.3654H44.5239V32.4774H7.11594V25.3654ZM1.85194 40.0374H49.3959V47.2614H1.85194V40.0374ZM21.1159 28.9494H30.1319V43.1734H21.1159V28.9494ZM7.11594 3.24538H44.1879V10.4134H16.2999V28.0534H7.11594V3.24538ZM13.5559 14.3334H42.9559V21.2774H13.5559V14.3334ZM53.3676 25.1414H100.912V32.1974H53.3676V25.1414ZM72.5756 16.8534H81.5916V27.1574H72.5756V16.8534ZM58.5756 34.8854H95.4236V52.6374H86.4076V41.9414H58.5756V34.8854ZM59.0236 14.3334H95.8716V21.4454H59.0236V14.3334ZM59.0236 2.18138H95.4236V9.23738H67.9836V18.1974H59.0236V2.18138ZM107.851 60.0294L105.835 54.7094C110.707 53.0294 113.283 50.0054 113.227 46.7574L113.115 40.2054L116.251 45.6934C115.299 46.5334 114.067 46.9254 112.723 46.9254C109.643 46.9254 106.787 44.9094 106.787 41.3254C106.787 37.9654 109.531 35.7254 113.003 35.7254C117.371 35.7254 119.779 39.1974 119.779 45.0214C119.779 52.2454 115.635 57.6774 107.851 60.0294ZM156.409 15.7894H165.425V22.6774H156.409V15.7894ZM154.729 4.08538H162.569V5.26138C162.569 11.9814 156.745 17.7494 141.737 18.5894L138.993 11.8694C151.649 11.3094 154.729 7.66938 154.729 5.26138V4.08538ZM159.489 4.08538H167.329V5.26138C167.329 7.72538 170.353 11.3094 183.065 11.8694L180.321 18.5894C165.313 17.7494 159.489 12.0934 159.489 5.26138V4.08538ZM141.569 1.17338H180.545V7.94938H141.569V1.17338ZM141.457 31.2454H180.433V37.9094H141.457V31.2454ZM137.313 19.7654H184.857V26.8214H137.313V19.7654ZM160.889 38.8614C171.081 38.8614 177.073 41.3254 177.073 45.8054C177.073 50.2854 171.081 52.6934 160.889 52.6934C150.697 52.6934 144.705 50.2854 144.705 45.8054C144.705 41.3254 150.697 38.8614 160.889 38.8614ZM160.889 44.6854C156.185 44.6854 154.113 44.8534 154.113 45.8054C154.113 46.7014 156.185 46.8694 160.889 46.8694C165.593 46.8694 167.721 46.7014 167.721 45.8054C167.721 44.8534 165.593 44.6854 160.889 44.6854ZM156.409 28.1654H165.425V35.1094H156.409V28.1654ZM188.773 26.4294H236.317V33.5414H188.773V26.4294ZM194.317 44.6854H230.941V51.8534H194.317V44.6854ZM194.317 36.4534H203.333V47.0374H194.317V36.4534ZM212.573 1.50938C224.109 1.50938 231.893 5.76538 231.893 12.4854C231.893 19.3174 224.109 23.5174 212.573 23.5174C201.037 23.5174 193.253 19.3174 193.253 12.4854C193.253 5.76538 201.037 1.50938 212.573 1.50938ZM212.573 8.62138C206.133 8.62138 202.605 9.79738 202.605 12.4854C202.605 15.2294 206.133 16.4054 212.573 16.4054C219.013 16.4054 222.541 15.2294 222.541 12.4854C222.541 9.79738 219.013 8.62138 212.573 8.62138ZM258.853 2.06938H291.837V9.18138H258.853V2.06938ZM253.141 17.9734H300.685V25.0854H253.141V17.9734ZM286.517 2.06938H295.421V5.76538C295.421 9.51738 295.421 14.2214 294.077 20.1014L285.173 19.3174C286.517 13.5494 286.517 9.46138 286.517 5.76538V2.06938ZM258.237 27.7734H295.141V43.3414H267.309V47.5974H258.293V36.7894H286.125V34.6614H258.237V27.7734ZM258.293 45.4694H296.485V52.4134H258.293V45.4694ZM328.401 0.725382C340.609 0.725382 347.721 3.86138 347.721 9.62938C347.721 15.3974 340.609 18.5334 328.401 18.5334C316.193 18.5334 309.081 15.3974 309.081 9.62938C309.081 3.86138 316.193 0.725382 328.401 0.725382ZM328.401 7.27738C321.345 7.27738 318.489 7.89338 318.489 9.62938C318.489 11.4774 321.345 11.9814 328.401 11.9814C335.457 11.9814 338.313 11.4774 338.313 9.62938C338.313 7.89338 335.457 7.27738 328.401 7.27738ZM304.601 20.3814H352.145V27.4374H304.601V20.3814ZM309.865 29.5654H346.545V43.9574H318.825V47.6534H309.921V37.7974H337.641V36.1734H309.865V29.5654ZM309.921 45.6934H347.833V52.4134H309.921V45.6934ZM370.089 4.14138H395.625V30.1254H370.089V4.14138ZM386.721 11.2534H378.993V23.0134H386.721V11.2534ZM401.561 0.10938H410.577V38.3014H401.561V0.10938ZM408.113 14.7814H417.129V22.1734H408.113V14.7814ZM376.081 44.6854H412.201V51.8534H376.081V44.6854ZM376.081 34.4934H385.153V48.4374H376.081V34.4934ZM459.741 19.3174H468.757V26.7094H459.741V19.3174ZM452.965 -0.00261879H462.037V52.5254H452.965V-0.00261879ZM421.773 4.98138H430.789V37.6854H421.773V4.98138ZM421.773 32.5334H426.477C433.813 32.5334 442.045 32.0294 450.389 30.4054L451.285 37.7414C442.717 39.5334 434.093 39.9814 426.477 39.9814H421.773V32.5334ZM477.544 13.3814H514.392V20.4934H477.544V13.3814ZM472 25.0854H519.544V32.1974H472V25.0854ZM477.544 1.90138H486.56V16.9094H477.544V1.90138ZM476.984 44.4054H514.672V51.5734H476.984V44.4054ZM476.984 35.7814H486.056V46.3094H476.984V35.7814ZM10.7559 85.4214H17.6439V93.5974C17.6439 106.085 15.0119 118.125 6.16394 123.501L0.619938 116.837C8.79594 111.909 10.7559 102.501 10.7559 93.5974V85.4214ZM12.6039 85.4214H19.5479V92.9254C19.5479 102.221 21.0599 110.621 28.5639 114.709L23.4119 121.877C14.3959 116.893 12.6039 105.693 12.6039 92.9254V85.4214ZM38.6439 81.0534H47.2119V133.581H38.6439V81.0534ZM33.4359 101.101H41.3879V108.325H33.4359V101.101ZM27.4439 81.7254H35.8439V131.397H27.4439V81.7254ZM53.3676 120.925H100.912V128.205H53.3676V120.925ZM72.5756 111.685H81.5916V123.837H72.5756V111.685ZM58.5196 84.1894H95.8716V102.557H67.5356V110.453H58.5756V95.5574H86.9116V91.3014H58.5196V84.1894ZM58.5756 106.981H97.0476V114.149H58.5756V106.981ZM104.883 106.029H152.427V113.085H104.883V106.029ZM124.483 110.677H133.667V121.205H124.483V110.677ZM110.147 125.685H147.275V132.853H110.147V125.685ZM110.147 116.893H119.275V127.421H110.147V116.893ZM128.627 81.8374C140.051 81.8374 147.779 86.2054 147.779 92.9254C147.779 99.7014 140.051 104.013 128.627 104.013C117.203 104.013 109.475 99.7014 109.475 92.9254C109.475 86.2054 117.203 81.8374 128.627 81.8374ZM128.627 88.9494C122.747 88.9494 119.219 90.1254 119.219 92.9254C119.219 95.6694 122.747 96.9014 128.627 96.9014C134.507 96.9014 138.035 95.6694 138.035 92.9254C138.035 90.1254 134.507 88.9494 128.627 88.9494ZM193.444 112.693C204.476 112.693 211.476 116.669 211.476 123.221C211.476 129.829 204.476 133.749 193.444 133.749C182.412 133.749 175.356 129.829 175.356 123.221C175.356 116.669 182.412 112.693 193.444 112.693ZM193.444 119.749C187.34 119.749 184.372 120.701 184.372 123.221C184.372 125.797 187.34 126.805 193.444 126.805C199.548 126.805 202.516 125.797 202.516 123.221C202.516 120.701 199.548 119.749 193.444 119.749ZM201.788 81.1094H210.804V111.685H201.788V81.1094ZM208.34 92.7574H217.356V100.149H208.34V92.7574ZM170.316 84.4134H179.276V90.1814H187.116V84.4134H196.076V109.389H170.316V84.4134ZM179.276 97.0694V102.389H187.116V97.0694H179.276ZM222.671 83.7414H231.631V89.6214H239.303V83.7414H248.151V108.605H222.671V83.7414ZM231.631 96.3974V101.437H239.303V96.3974H231.631ZM246.247 92.5334H257.895V99.7574H246.247V92.5334ZM255.991 81.1094H265.063V109.893H255.991V81.1094ZM229.503 111.909H238.463V115.717H256.103V111.909H265.063V133.021H229.503V111.909ZM238.463 122.605V125.909H256.103V122.605H238.463Z" fill="#F9F9F9"/>
        </g>
    </svg>
<svg x="731.42" y="204.65" width="594" height="567" viewBox="0 0 594 567" fill="none" xmlns="http://www.w3.org/2000/svg">
<path fill-rule="evenodd" clip-rule="evenodd" d="M521.953 488.875C506.627 482.195 493.561 470.448 485.293 455.92C477.024 441.391 473.599 424.157 475.683 407.571C476.579 400.443 478.546 393.266 482.794 387.473C487.041 381.679 493.871 377.455 501.05 377.691C506.224 377.86 511.155 380.305 514.973 383.8C518.79 387.295 521.578 391.783 523.768 396.475C530.237 410.343 533.737 432.044 532.209 447.27C530.681 462.498 527.038 477.858 521.953 488.875Z" fill="#EEBCE8"/>
<path fill-rule="evenodd" clip-rule="evenodd" d="M499.083 388.013C499.973 394.679 501.268 401.284 502.762 407.84C504.255 414.382 505.938 420.879 507.611 427.377C508.075 429.183 508.539 430.989 508.998 432.796C508.999 432.844 509.012 432.888 509.031 432.925C510.223 437.627 511.376 442.341 512.411 447.082C513.562 452.358 514.503 457.675 515.47 462.988C511.677 458.816 508.053 454.497 504.629 450.019C501.24 445.588 498.039 441.019 494.84 436.451C492.792 433.528 490.742 430.607 488.666 427.704C488.401 427.333 487.821 427.738 488.086 428.108C491.644 433.083 495.11 438.123 498.662 443.102C501.898 447.638 505.238 452.097 508.796 456.388C511.029 459.081 513.339 461.709 515.705 464.285C515.86 465.127 516.014 465.969 516.172 466.811C517.389 473.342 518.76 479.862 520.788 486.198C521.039 486.982 521.301 487.763 521.572 488.541C521.722 488.972 522.386 488.726 522.235 488.297C520.039 481.997 518.555 475.482 517.293 468.939C516.997 467.41 516.713 465.879 516.433 464.345C516.477 464.224 516.468 464.082 516.363 463.963C515.473 459.068 514.623 454.164 513.602 449.294C512.44 443.752 511.105 438.248 509.715 432.759C511.073 425.244 512.898 417.794 514.969 410.445C515.512 408.518 516.077 406.599 516.686 404.693C516.822 404.266 516.182 403.965 516.045 404.397C513.709 411.725 511.819 419.214 510.198 426.733C509.884 428.195 509.583 429.66 509.301 431.129L508.937 429.708C507.273 423.208 505.567 416.719 504.028 410.188C502.488 403.648 501.119 397.061 500.135 390.411C500.013 389.589 499.898 388.766 499.789 387.942C499.726 387.495 499.023 387.559 499.083 388.013Z" fill="#2C3C5E"/>
<path fill-rule="evenodd" clip-rule="evenodd" d="M550.559 386.588C548.661 389.668 546.85 392.801 545.124 395.98C545.569 393.949 545.868 391.892 545.904 389.816C545.969 386.189 545.175 382.466 543.132 379.467C541.962 377.752 540.066 376.196 538.022 376.547C536.22 376.859 534.993 378.527 534.148 380.148C533.352 381.677 532.7 383.352 532.799 385.072C532.943 387.599 534.672 389.767 536.623 391.381C538.315 392.779 542.287 395.594 543.558 398.926C541.378 403.109 539.347 407.37 537.47 411.697C536.94 412.921 536.421 414.148 535.915 415.382C536.392 413.267 536.717 411.122 536.754 408.958C536.816 405.33 536.023 401.608 533.98 398.61C532.811 396.895 530.916 395.337 528.872 395.691C527.069 396.002 525.844 397.669 524.998 399.291C524.199 400.821 523.549 402.495 523.648 404.216C523.792 406.743 525.521 408.911 527.471 410.525C529.263 412.006 533.614 415.078 534.603 418.667C532.842 423.188 531.245 427.772 529.821 432.409C529.985 431.26 530.088 430.103 530.109 428.941C530.17 425.311 529.379 421.59 527.335 418.591C526.166 416.876 524.269 415.319 522.224 415.673C520.422 415.985 519.198 417.653 518.351 419.273C517.552 420.801 516.903 422.478 517.001 424.198C517.145 426.724 518.875 428.892 520.825 430.504C522.635 432.001 527.056 435.119 527.984 438.757C527.74 439.657 527.502 440.559 527.272 441.463C525.815 447.143 524.62 452.889 523.674 458.677C523.579 459.253 524.487 459.287 524.58 458.715C525.765 451.483 527.357 444.318 529.34 437.262C531.717 438.349 534.645 439.364 536.977 440.122C539.909 441.077 543.215 441.758 545.99 440.416C546.344 440.247 546.687 440.04 546.929 439.731C547.174 439.415 547.29 439.02 547.367 438.628C547.987 435.516 546.385 432.16 543.714 430.449C541.041 428.738 537.49 428.638 534.595 429.934C533.052 430.625 531.7 431.682 530.601 432.966C531.07 431.43 531.559 429.9 532.065 428.376C532.838 426.049 533.655 423.737 534.514 421.439C537.275 421.95 540.071 422.284 542.867 422.098C546.28 421.87 549.717 420.831 552.371 418.673C553.891 417.44 555.204 415.535 554.711 413.639C554.275 411.971 552.61 410.95 551.02 410.283C549.523 409.654 547.895 409.176 546.286 409.404C543.923 409.738 542.022 411.535 540.66 413.495C539.599 415.024 537.611 418.367 535.023 420.09C537.614 413.31 540.58 406.674 543.903 400.222C543.916 400.309 543.926 400.394 543.935 400.482L544.003 400.251C546.832 401.614 550.527 402.898 553.42 403.84C556.789 404.936 560.587 405.721 563.777 404.178C564.179 403.983 564.578 403.744 564.852 403.389C565.134 403.028 565.267 402.573 565.357 402.122C566.07 398.548 564.23 394.692 561.16 392.725C558.088 390.761 554.008 390.644 550.682 392.134C549.203 392.797 547.874 393.755 546.741 394.912C548.253 392.187 549.827 389.496 551.468 386.844C554.364 385.694 557.755 383.894 560.373 382.438C563.469 380.714 566.626 378.466 567.668 375.079C567.799 374.65 567.896 374.197 567.822 373.755C567.748 373.301 567.506 372.895 567.236 372.523C565.102 369.569 561.024 368.293 557.494 369.204C553.964 370.119 551.104 373.028 549.93 376.478C548.818 379.754 549.155 383.425 550.559 386.588Z" fill="white"/>
<path fill-rule="evenodd" clip-rule="evenodd" d="M521.51 486.894C519.331 474.888 521.141 462.193 526.589 451.273C532.037 440.355 541.093 431.273 551.996 425.796C556.683 423.442 561.831 421.717 567.07 421.938C572.31 422.159 577.646 424.581 580.422 429.03C582.421 432.234 582.944 436.219 582.376 439.954C581.809 443.689 580.22 447.205 578.268 450.438C572.489 459.996 560.754 470.942 550.901 476.203C541.05 481.466 530.256 485.501 521.51 486.894Z" fill="#EAAB4D"/>
<path fill-rule="evenodd" clip-rule="evenodd" d="M573.365 432.031C569.685 435.279 566.208 438.75 562.84 442.321C559.48 445.885 556.225 449.548 552.965 453.202C552.058 454.219 551.15 455.236 550.239 456.25C550.213 456.269 550.194 456.291 550.18 456.315C547.812 458.951 545.422 461.566 542.968 464.121C540.238 466.964 537.398 469.696 534.569 472.44C535.555 468.446 536.7 464.493 538.023 460.597C539.333 456.742 540.801 452.945 542.27 449.148C543.21 446.718 544.147 444.287 545.063 441.849C545.18 441.539 544.7 441.352 544.583 441.663C543.012 445.842 541.367 449.992 539.792 454.169C538.357 457.975 537.011 461.813 535.856 465.715C535.131 468.162 534.477 470.63 533.878 473.111L532.534 474.422C529.071 477.817 525.674 481.297 522.657 485.1C522.284 485.572 521.916 486.048 521.554 486.53C521.355 486.795 521.771 487.097 521.97 486.832C524.897 482.94 528.246 479.393 531.699 475.966C532.506 475.165 533.318 474.371 534.135 473.578C534.226 473.556 534.309 473.492 534.339 473.38C536.945 470.851 539.572 468.342 542.11 465.744C544.997 462.788 547.79 459.74 550.552 456.666C555.661 454.435 560.921 452.513 566.218 450.782C567.605 450.327 569 449.889 570.403 449.483C570.718 449.392 570.641 448.883 570.324 448.976C564.93 450.537 559.621 452.435 554.406 454.508C553.391 454.912 552.378 455.326 551.371 455.752L552.087 454.952C555.352 451.301 558.593 447.63 561.926 444.042C565.266 440.45 568.703 436.942 572.334 433.643C572.783 433.235 573.234 432.83 573.69 432.429C573.94 432.211 573.616 431.811 573.365 432.031Z" fill="white" stroke="white" stroke-width="0.134" stroke-miterlimit="10"/>
<path d="M495.605 487.762H543.939C547.69 487.762 550.612 491.014 550.213 494.743L543.497 557.483C543.153 560.689 540.448 563.121 537.222 563.121H502.321C499.096 563.121 496.39 560.689 496.047 557.483L489.33 494.743C488.931 491.014 491.854 487.762 495.605 487.762Z" fill="#DD6B6D"/>
<path d="M494.971 547.355L496.051 557.484C496.385 560.685 499.097 563.127 502.324 563.127H537.224C540.45 563.127 543.15 560.685 543.497 557.484L549.872 497.994C541.89 499.485 527.698 505.038 524.099 525.438C521.683 539.115 508.327 544.977 494.971 547.355Z" fill="#B2474D"/>
<path d="M502.293 101.306C502.293 101.306 521.18 114.543 509.542 145.404C497.83 176.46 525.499 168.972 535.967 206.257L419.632 203.265C419.632 203.265 444.367 162.382 444.691 146.347C445.015 130.313 437.411 96.3665 469.852 98.8358C502.293 101.306 502.293 101.306 502.293 101.306Z" fill="#394D12"/>
<path d="M316.339 148.882L372.098 141.088L381.789 213.783L333.281 206.812L316.339 148.882Z" fill="#B2474D"/>
<path d="M316.193 149.171L313.393 153.197L370.472 229.153C370.472 229.153 371.459 222.748 377.448 219.481L366.592 151.808C366.592 151.808 342.764 153.141 316.193 149.171Z" fill="white"/>
<path d="M313.393 153.197L322.45 221.253L370.472 229.153L360.747 157.759L313.393 153.197Z" fill="#DD6B6D"/>
<path d="M321.001 168.261L321.994 176.459L354.639 179.238L353.244 170.294L321.001 168.261Z" fill="white"/>
<path d="M351.296 239.758C351.296 239.758 354.346 219.565 344.199 211.419C343.274 210.677 342.124 210.263 340.94 210.209C339.451 210.141 338.319 211.532 338.689 212.977L341.383 223.522L319.082 205.094C317.679 203.935 315.619 204.054 314.36 205.368C313.195 206.584 313.069 208.458 314.059 209.82L317.788 214.939L317.823 229.847C317.83 232.904 318.929 235.904 321.072 238.084C324.164 241.231 330.037 244.921 340.943 246.042L351.296 239.758Z" fill="#EEBCE8"/>
<path d="M354.697 233.919L408.758 281.21L369.997 301.911L325.04 250.411L354.697 233.919Z" fill="#EAAB4D"/>
<path d="M429.728 176.459C429.728 176.459 411.848 180.193 403.198 220.662C394.548 261.13 390.841 276.267 390.841 276.267L430.714 284.917L436.839 224.059L429.728 176.459Z" fill="#EAAB4D"/>
<path d="M443.652 173.713C443.652 173.713 413.374 171.497 413.374 207.004C413.374 242.51 420.929 294.154 420.929 294.154H500.329L519.434 203.234C520.397 195.084 508.292 189.591 500.903 186.02C496.143 183.719 489.486 181.225 480.179 178.793L443.652 173.713Z" fill="#EAAB4D"/>
<path d="M422.681 203.262C422.681 203.262 411.29 221.592 417.037 245.535C422.784 269.478 425.152 272.117 425.152 272.117" stroke="#394D12" stroke-width="0.6452" stroke-miterlimit="10" stroke-linecap="round" stroke-linejoin="round"/>
<path d="M405.969 283.719C405.969 283.719 371.472 270.026 360.978 306.536H413.375L405.969 283.719Z" fill="#EEBCE8"/>
<path d="M507.575 191.16C507.575 191.16 477.49 187.345 486.343 266.697L400.669 274.285L405.276 306.535L502.383 306.584C518.051 306.127 526.661 294.328 527.845 278.698C530.327 245.93 529.699 192.866 507.575 191.16Z" fill="#EAAB4D"/>
<path d="M401.838 282.474L400.668 274.285L486.342 266.697L481.579 216.071" stroke="#394D12" stroke-width="0.6452" stroke-miterlimit="10" stroke-linecap="round" stroke-linejoin="round"/>
<path d="M486.342 266.697L500.749 265.289" stroke="#394D12" stroke-width="0.6452" stroke-miterlimit="10" stroke-linecap="round" stroke-linejoin="round"/>
<mask id="mask0_2057_7852" style="mask-type:luminance" maskUnits="userSpaceOnUse" x="325" y="173" width="204" height="134">
<path d="M513.785 193.279C509.889 190.267 504.756 187.881 500.903 186.019C496.143 183.718 489.486 181.224 480.179 178.792L443.651 173.713C443.651 173.713 436.87 173.223 429.727 176.463V176.459C429.727 176.459 411.846 180.194 403.197 220.663C398.205 244.018 394.862 258.921 392.925 267.362L354.695 233.919L325.039 250.412L369.996 301.912L402.159 284.734L405.274 306.535L502.38 306.584C518.049 306.127 526.659 294.328 527.842 278.698C530.07 249.331 529.791 203.668 513.785 193.279Z" fill="white"/>
</mask>
<g mask="url(#mask0_2057_7852)">
<path d="M416.921 281.203C416.921 281.203 420.369 289.97 426.177 294.325" stroke="#CE8729" stroke-miterlimit="10"/>
<path d="M365.844 246.737C365.844 246.737 369.292 255.504 375.099 259.859" stroke="#CE8729" stroke-miterlimit="10"/>
<path d="M403.726 306.384C403.726 306.384 411.202 300.652 413.789 293.87" stroke="#CE8729" stroke-miterlimit="10"/>
<path d="M439.383 287.309C439.383 287.309 447.025 281.801 449.81 275.097" stroke="#CE8729" stroke-miterlimit="10"/>
<path d="M431.626 314.123C431.626 314.123 439.268 308.615 442.052 301.912" stroke="#CE8729" stroke-miterlimit="10"/>
<path d="M453.264 296.322C453.264 296.322 462.026 299.779 469.172 298.502" stroke="#CE8729" stroke-miterlimit="10"/>
<path d="M488.282 274.357C488.282 274.357 491.729 283.124 497.537 287.479" stroke="#CE8729" stroke-miterlimit="10"/>
<path d="M511.328 196.025C511.328 196.025 514.776 204.792 520.584 209.147" stroke="#CE8729" stroke-miterlimit="10"/>
<path d="M495.048 182.819C495.048 182.819 490.457 191.044 490.772 198.297" stroke="#CE8729" stroke-miterlimit="10"/>
<path d="M506.364 236.559C506.364 236.559 498.366 241.536 495.133 248.035" stroke="#CE8729" stroke-miterlimit="10"/>
<path d="M474.223 248.857C474.223 248.857 466.225 253.835 462.992 260.334" stroke="#CE8729" stroke-miterlimit="10"/>
<path d="M475.088 299.537C475.088 299.537 482.564 293.805 485.15 287.023" stroke="#CE8729" stroke-miterlimit="10"/>
<path d="M510.743 280.463C510.743 280.463 518.385 274.955 521.17 268.251" stroke="#CE8729" stroke-miterlimit="10"/>
<path d="M511.763 260.827C511.763 260.827 512.368 251.427 508.964 245.015" stroke="#CE8729" stroke-miterlimit="10"/>
<path d="M451.423 253.397C451.423 253.397 442.04 252.555 435.545 255.797" stroke="#CE8729" stroke-miterlimit="10"/>
<path d="M502.986 307.277C502.986 307.277 510.628 301.769 513.412 295.065" stroke="#CE8729" stroke-miterlimit="10"/>
<path d="M520.886 286.533C520.886 286.533 529.649 289.989 536.794 288.713" stroke="#CE8729" stroke-miterlimit="10"/>
<path d="M400.717 267.778C400.717 267.778 406.22 260.133 406.738 252.892" stroke="#CE8729" stroke-miterlimit="10"/>
<path d="M365.844 287.907C365.844 287.907 371.347 280.261 371.865 273.02" stroke="#CE8729" stroke-miterlimit="10"/>
<path d="M349.417 244.765C349.417 244.765 354.92 237.119 355.438 229.878" stroke="#CE8729" stroke-miterlimit="10"/>
<path d="M356.897 266.26C356.897 266.26 348.46 262.069 341.232 262.734" stroke="#CE8729" stroke-miterlimit="10"/>
<path d="M400.803 239.773C400.803 239.773 409.566 243.23 416.712 241.954" stroke="#CE8729" stroke-miterlimit="10"/>
<path d="M512.931 224.515C512.931 224.515 521.694 227.972 528.84 226.695" stroke="#CE8729" stroke-miterlimit="10"/>
<path d="M417.196 185.697C417.196 185.697 425.959 189.154 433.105 187.877" stroke="#CE8729" stroke-miterlimit="10"/>
<path d="M491.936 222.709C491.936 222.709 498.725 216.177 500.536 209.148" stroke="#CE8729" stroke-miterlimit="10"/>
<path d="M463.399 177.436C463.399 177.436 466.847 186.202 472.654 190.557" stroke="#CE8729" stroke-miterlimit="10"/>
<path d="M458.435 217.967C458.435 217.967 450.437 222.944 447.204 229.443" stroke="#CE8729" stroke-miterlimit="10"/>
<path d="M463.834 242.236C463.834 242.236 464.44 232.836 461.035 226.424" stroke="#CE8729" stroke-miterlimit="10"/>
<path d="M465.002 205.924C465.002 205.924 473.765 209.38 480.911 208.104" stroke="#CE8729" stroke-miterlimit="10"/>
<path d="M418.222 224.515C418.222 224.515 426.985 227.972 434.131 226.695" stroke="#CE8729" stroke-miterlimit="10"/>
<path d="M444.007 204.119C444.007 204.119 450.795 197.587 452.607 190.559" stroke="#CE8729" stroke-miterlimit="10"/>
<path d="M464.255 268.459C464.255 268.459 464.583 277.874 468.607 283.917" stroke="#CE8729" stroke-miterlimit="10"/>
</g>
<path d="M396.578 561.813L437.41 377.386C437.936 375.234 440.196 373.895 442.455 374.396C444.717 374.897 446.123 377.047 445.596 379.199C445.592 379.217 445.582 379.254 445.578 379.272L401.46 562.94C401.121 564.221 399.754 564.996 398.41 564.673C397.081 564.354 396.269 563.078 396.578 561.813Z" fill="black"/>
<path d="M517.481 562.941L473.363 379.272C472.795 377.129 474.158 374.954 476.408 374.413C478.659 373.872 480.943 375.17 481.511 377.312C481.516 377.33 481.525 377.367 481.529 377.385L522.36 561.812C522.675 563.099 521.834 564.383 520.483 564.682C519.15 564.979 517.815 564.2 517.481 562.941Z" fill="black"/>
<path d="M457.291 562.361L456.826 378.301C456.819 376.092 458.696 374.296 461.017 374.29C463.339 374.283 465.225 376.07 465.231 378.28C465.231 378.299 465.231 378.337 465.231 378.357L462.314 562.393C462.291 563.713 461.148 564.766 459.761 564.744C458.391 564.722 457.296 563.659 457.291 562.361Z" fill="black"/>
<path d="M507.265 384.749H411.861C409.729 384.749 408.003 383.022 408.003 380.892V374.695C408.003 372.563 409.731 370.837 411.861 370.837H507.265C509.396 370.837 511.123 372.565 511.123 374.695V380.892C511.123 383.023 509.396 384.749 507.265 384.749Z" fill="#DD6B6D"/>
<path d="M511.118 374.696V377.228C508.675 378.102 505.732 378.758 502.184 379.041C484.843 380.403 460.715 370.184 437.41 377.382C420.481 382.614 411.598 379.645 407.999 377.627V374.696C407.999 372.562 409.734 370.839 411.855 370.839H507.261C509.395 370.839 511.118 372.562 511.118 374.696Z" fill="#B2474D"/>
<path d="M370.955 306.535L313.555 306.574C301.203 306.58 289.765 313.085 283.443 323.697C274.563 338.604 277.92 357.763 291.336 368.765L408.921 477.979L438.153 450.032L365.917 357.169L370.955 306.535Z" fill="#1C2706"/>
<path d="M456.162 471.287L449.117 465.944L435.276 452.781L415.642 471.243L410.891 499.44L407.167 521.523C406.437 525.851 411.823 528.426 414.731 525.142L456.783 477.652C458.466 475.753 458.182 472.82 456.162 471.287Z" fill="#EAAB4D"/>
<path d="M422.973 478.665C423.887 486.138 422.972 499.437 408.922 511.125L415.644 471.241L416.567 471.473C419.974 472.331 422.546 475.176 422.973 478.665Z" fill="white"/>
<path d="M456.165 471.283C458.18 472.827 458.467 475.76 456.788 477.656L414.734 525.149C411.827 528.431 406.435 525.854 407.165 521.52L407.305 520.684L453.102 468.966L456.165 471.283Z" fill="#1C2706"/>
<path d="M410.57 501.338C410.57 501.338 412.695 495.53 417.487 495.411" stroke="#394D12" stroke-width="0.6452" stroke-miterlimit="10" stroke-linecap="round" stroke-linejoin="round"/>
<path d="M411.206 495.876C411.206 495.876 413.331 490.068 418.123 489.949" stroke="#394D12" stroke-width="0.6452" stroke-miterlimit="10" stroke-linecap="round" stroke-linejoin="round"/>
<path d="M411.933 490.493C411.933 490.493 414.057 484.685 418.85 484.565" stroke="#394D12" stroke-width="0.6452" stroke-miterlimit="10" stroke-linecap="round" stroke-linejoin="round"/>
<path d="M506.307 306.209C506.307 306.209 525.561 357.233 480.181 370.797H355.941L374.82 502.538L333.88 520.322L293.296 359.766C284.407 333.658 303.791 306.541 331.37 306.498L506.307 306.209Z" fill="#394D12"/>
<path d="M358.741 373.598L337.762 354.987" stroke="white" stroke-width="0.6452" stroke-miterlimit="10" stroke-linecap="round" stroke-linejoin="round"/>
<path d="M382.051 527.113L378.059 519.224L370.792 504.854L339.617 517.757L329.021 532.582L315.997 550.8C313.444 554.369 317.157 559.045 321.211 557.367L379.821 533.109C382.166 532.138 383.195 529.378 382.051 527.113Z" fill="#EAAB4D"/>
<path d="M350.382 513.301C350.382 513.301 348.559 535.746 322.13 542.221L339.617 517.756L350.382 513.301Z" fill="white"/>
<path d="M382.056 527.112C383.191 529.383 382.164 532.146 379.825 533.114L321.21 557.374C317.159 559.05 313.442 554.37 315.996 550.795L316.49 550.103L380.318 523.686L382.056 527.112Z" fill="#1C2706"/>
<path d="M327.902 534.146C327.902 534.146 332.356 529.857 336.716 531.85" stroke="#394D12" stroke-width="0.6452" stroke-miterlimit="10" stroke-linecap="round" stroke-linejoin="round"/>
<path d="M330.867 529.514C330.867 529.514 335.323 525.226 339.682 527.218" stroke="#394D12" stroke-width="0.6452" stroke-miterlimit="10" stroke-linecap="round" stroke-linejoin="round"/>
<path d="M333.879 524.994C333.879 524.994 338.333 520.705 342.693 522.698" stroke="#394D12" stroke-width="0.6452" stroke-miterlimit="10" stroke-linecap="round" stroke-linejoin="round"/>
<path d="M448.597 83.7514C448.597 83.7514 495.208 76.0978 505.71 100.15C513.33 117.601 499.284 146.354 477.172 152.601C456.108 158.553 468.591 93.1775 468.591 93.1775L448.597 83.7514Z" fill="#394D12"/>
<path d="M448.73 125.21C448.632 130.703 444.1 135.077 438.607 134.981C433.113 134.883 428.74 130.352 428.837 124.858C428.935 119.365 433.468 114.991 438.96 115.087C444.453 115.185 448.827 119.717 448.73 125.21Z" fill="#D39CCF"/>
<path d="M450.351 153.318L449.837 174.992C449.64 182.603 454.225 186.792 461.718 186.924C468.114 187.038 474.18 183.843 475.087 177.511L474.254 143.363L450.351 153.318Z" fill="#EEBCE8"/>
<path d="M449.947 168.971L477.076 148.906L450.358 151.094L449.947 168.971Z" fill="#394D12"/>
<path d="M456.604 157.374C443.867 156.298 434.229 145.352 434.757 134.92L436.153 110.315C436.815 97.2411 447.728 87.0488 460.818 87.2802C474.218 87.518 487.237 98.6153 486.999 112.015L485.662 131.791C484.626 147.087 471.932 157.646 456.604 157.374Z" fill="#EEBCE8"/>
<path d="M472.995 101.913L480.627 128.341L499.518 109.837L472.995 101.913Z" fill="#394D12"/>
<path d="M448.586 129L447.547 134.056L450.849 134.529" stroke="#18203D" stroke-width="1.1036" stroke-miterlimit="10" stroke-linecap="round" stroke-linejoin="round"/>
<path d="M465.277 114.748C465.277 114.748 459.833 113.708 459.536 116.012C459.536 116.012 459.377 117.575 464.137 118.386C468.897 119.197 470.18 118.965 470.771 117.543C471.364 116.12 467.852 115.032 465.277 114.748Z" fill="#18203D"/>
<path d="M442.246 113.008C442.246 113.008 446.83 112.999 446.974 115.204C446.974 115.204 447.035 116.696 443.031 116.612C439.027 116.528 437.791 115.873 437.539 114.648C437.255 113.262 440.088 112.817 442.246 113.008Z" fill="#18203D"/>
<path d="M444.357 124.371C444.26 125.69 443.147 126.686 441.871 126.596C440.593 126.506 439.635 125.365 439.732 124.046C439.827 122.727 440.94 121.731 442.218 121.821C443.494 121.911 444.452 123.052 444.357 124.371Z" fill="#18203D"/>
<path d="M464.629 125.789C464.534 127.108 463.421 128.103 462.143 128.014C460.866 127.924 459.908 126.781 460.004 125.464C460.101 124.145 461.213 123.149 462.49 123.239C463.767 123.329 464.725 124.47 464.629 125.789Z" fill="#18203D"/>
<path d="M475.625 125.107C475.381 131.638 469.888 136.735 463.357 136.49C456.825 136.246 451.729 130.754 451.974 124.222C452.218 117.691 457.711 112.594 464.243 112.84C470.773 113.083 475.868 118.575 475.625 125.107Z" stroke="white" stroke-width="1.0293" stroke-miterlimit="10"/>
<path d="M448.388 122.341C448.144 128.873 443.093 133.986 437.108 133.761C431.123 133.537 426.47 128.061 426.713 121.53C426.957 114.999 432.007 109.885 437.992 110.11C443.977 110.335 448.632 115.811 448.388 122.341Z" stroke="white" stroke-width="1.0293" stroke-miterlimit="10"/>
<path d="M448.195 124.081L451.979 124.516" stroke="white" stroke-width="1.0293" stroke-miterlimit="10"/>
<path d="M475.625 125.106L479.456 124.196" stroke="white" stroke-width="1.0293" stroke-miterlimit="10"/>
<path d="M444.647 137.901C444.647 137.901 447.692 141.103 455.212 139.31" stroke="#18203D" stroke-width="1.1036" stroke-miterlimit="10" stroke-linecap="round" stroke-linejoin="round"/>
<path d="M448.597 83.751C448.597 83.751 432.015 86.8759 436.679 106.384C436.679 106.384 454.711 97.6762 460.818 87.2808L448.597 83.751Z" fill="#394D12"/>
<path d="M448.597 83.7512C448.597 83.7512 448.457 113.075 489.724 113.955C489.724 113.955 495.112 100.394 485.218 91.7647C475.326 83.138 448.597 83.7512 448.597 83.7512Z" fill="#394D12"/>
<path d="M497.795 130.281C498.045 124.792 493.798 120.14 488.31 119.89C482.821 119.64 478.169 123.887 477.919 129.375C477.669 134.864 481.916 139.516 487.404 139.766C492.893 140.016 497.545 135.769 497.795 130.281Z" fill="#EEBCE8"/>
<path d="M484.319 132.741C484.319 132.741 484.447 125.529 491.322 126.786" stroke="#18203D" stroke-width="1.2341" stroke-miterlimit="10" stroke-linecap="round" stroke-linejoin="round"/>
<path d="M486.942 139.142C486.97 140.517 485.879 141.655 484.504 141.683C483.128 141.712 481.991 140.62 481.962 139.244C481.934 137.868 483.025 136.73 484.401 136.702C485.776 136.674 486.914 137.767 486.942 139.142Z" fill="white"/>
<path d="M490.942 93.3235C490.942 93.3235 505.843 61.9124 522.352 81.5951C538.861 101.278 516.735 109.278 497.568 108.395L490.942 93.3235Z" fill="#394D12"/>
<path d="M473.109 176.8L486.343 180.522C486.343 180.522 474.014 195.563 451.979 192.734C430.96 190.035 442.819 173.691 442.819 173.691L454.721 172.848L473.109 176.8Z" fill="#EEBCE8"/>
<path d="M112.001 566.406H97.9188L132.027 450.57H146.108L112.001 566.406Z" fill="#394D12"/>
<path d="M227.899 566.406H241.98L207.872 450.57H193.791L227.899 566.406Z" fill="#394D12"/>
<path d="M68.4834 402.9C95.0355 403.023 240.093 403.709 273.371 404.275C276.305 404.325 278.717 406.578 278.966 409.504C279.933 420.834 281.803 447.298 278.499 450.57C274.282 454.749 68.0977 452.199 64.3018 450.57C61.1525 449.219 60.8453 419.813 62.8094 407.736C63.2632 404.943 65.6541 402.888 68.4834 402.9Z" fill="white"/>
<path d="M257.581 444.525H85.2212C80.6077 444.525 76.8671 440.784 76.8671 436.17V421.619C76.8671 417.006 80.6077 413.265 85.2212 413.265H257.58C262.194 413.265 265.934 417.006 265.934 421.619V436.17C265.934 440.785 262.195 444.525 257.581 444.525Z" fill="#394D12"/>
<path d="M185.216 431.416H157.587C155.259 431.416 153.37 430.287 153.37 428.895C153.37 427.503 155.259 426.374 157.587 426.374H185.216C187.544 426.374 189.432 427.503 189.432 428.895C189.432 430.287 187.544 431.416 185.216 431.416Z" fill="#E06A68"/>
<path opacity="0.3" d="M278.503 450.576C274.287 454.754 68.1016 452.196 64.2967 450.576C62.7927 449.934 61.9443 442.915 61.6744 434.431C76.277 432.799 103.31 432.747 153.365 438.172C231.096 446.592 266.06 428.737 279.622 417.978C280.483 430.639 281.138 447.967 278.503 450.576Z" fill="#919191"/>
<path d="M234.585 352.984L184.943 352.694L77.6126 352.061C77.5869 348.357 77.3285 344.616 76.9506 341.095C75.8323 330.631 73.6997 322.081 73.6997 322.081C73.6997 322.081 119.777 328.179 154.023 328.042C160.062 328.019 170.931 328.075 182.753 328.162C194.061 328.247 206.242 328.358 215.891 328.453C226.489 328.555 234.037 328.636 234.037 328.636C238.292 337.531 234.585 352.984 234.585 352.984Z" fill="white"/>
<path opacity="0.3" d="M234.585 352.984L184.943 352.694C186.62 338.613 182.752 328.162 182.752 328.162C206.479 328.338 234.037 328.635 234.037 328.635C238.292 337.53 234.585 352.984 234.585 352.984Z" fill="#919191"/>
<path opacity="0.3" d="M216.014 329.803C184.089 331.588 183.74 331.588 183.74 331.588C183.74 331.588 138.862 330.458 76.9506 341.095C75.8323 330.631 73.6997 322.081 73.6997 322.081C73.6997 322.081 119.777 328.179 154.023 328.042C160.062 328.019 170.931 328.075 182.753 328.162C194.061 328.247 206.242 328.358 215.891 328.453L216.014 329.803Z" fill="#919191"/>
<path opacity="0.3" d="M216.014 329.802C216.014 329.802 230.946 330.883 232.542 330.986C234.139 331.089 234.661 340.151 232.799 351.22L234.756 352.202L236.558 336.186L233.418 328.039L216.014 329.802Z" fill="#545252"/>
<path d="M234.036 326.277V329.802H180.383V326.783L232.212 326.293L234.036 326.277Z" fill="#4542BC"/>
<path opacity="0.3" d="M221.626 338.888L217.384 352.984L223.151 352.923L227.767 339.003L221.626 338.888Z" fill="#545252"/>
<path d="M180.384 351.726V354.746H234.036V351.222L180.384 351.726Z" fill="#4542BC"/>
<path d="M235.251 354.745H232.205C232.205 354.745 236.807 342.031 233.425 329.802C233.099 328.625 232.698 327.451 232.212 326.293L234.035 326.276H235.251C240.788 339.448 235.251 354.745 235.251 354.745Z" fill="#4542BC"/>
<path d="M70.7818 323.367C106.892 329.083 157.832 329.804 180.384 329.804V326.783C157.832 326.783 106.892 326.062 70.7818 320.347V323.367Z" fill="#9D8DFC"/>
<path d="M180.384 351.726C166.071 351.726 117.893 352.063 70.7818 348.881L71.5363 354.747H180.383" fill="#9D8DFC"/>
<path d="M221.626 338.888C221.626 338.888 223.377 338.888 226.62 338.888C229.863 338.888 231.203 340.573 231.203 360.491H225.333C225.333 360.491 227.033 338.888 221.626 338.888Z" fill="#EAAB4D"/>
<path d="M210.831 370.118C200.054 372.384 157.048 371.716 157.048 371.716C155.238 364.934 156.8 356.116 156.8 356.116H210.831C210.672 357.786 210.589 359.451 210.557 361.024C210.443 366.055 210.831 370.118 210.831 370.118Z" fill="white"/>
<path opacity="0.3" d="M210.831 356.114C210.672 357.784 210.589 359.45 210.557 361.022C200.654 359.076 186.671 356.882 173.999 356.882L174.58 356.116H210.831V356.114Z" fill="#919191"/>
<path d="M211.793 354.482H155.052V356.882H211.793V354.482Z" fill="#D18D33"/>
<path d="M157.682 373.054C155.463 363.768 157.682 354.482 157.682 354.482H92.7205C91.4492 354.482 90.3732 355.409 90.1766 356.665C89.7177 359.599 89.1572 365.123 90.1509 370.929C90.3617 372.161 91.4389 373.055 92.687 373.055H157.682V373.054Z" fill="#D18D33"/>
<path d="M156.549 373.054C154.331 363.768 156.549 354.482 156.549 354.482H91.588C90.3167 354.482 89.2395 355.409 89.0441 356.665C88.5852 359.599 88.0247 365.123 89.0184 370.929C89.2292 372.161 90.3064 373.055 91.5546 373.055H156.549V373.054Z" fill="#EAAB4D"/>
<path d="M156.549 370.654C156.549 370.654 186.184 371.56 213.336 368.917V373.022L157.682 373.054L156.549 370.654Z" fill="#D18D33"/>
<path d="M255.598 368.78C255.04 370.648 254.834 374.826 254.766 376.829C254.741 377.512 254.734 377.943 254.734 377.943L244.746 378.974H254.734V381.789L209.664 382.203L254.734 383.644C253.807 396.479 254.734 401.561 254.734 401.561L253.393 402.885H166.619C163.462 388.759 166.619 374.801 166.619 374.801C183.006 374.801 197.707 374.055 210.163 373.03C237.369 370.797 253.875 367.235 253.875 367.235L255.598 368.78Z" fill="white"/>
<path opacity="0.3" d="M255.598 368.78C255.04 370.648 254.834 374.826 254.766 376.829C241.833 373.551 222.18 374.121 210.408 374.363L210.164 373.03C237.37 370.797 253.877 367.235 253.877 367.235L255.598 368.78Z" fill="#919191"/>
<path d="M164.423 376.2C164.423 376.2 219.893 376.2 258.063 368.286V365.107C219.893 373.021 164.423 373.021 164.423 373.021V376.2Z" fill="#B2474D"/>
<path opacity="0.3" d="M183.062 386.216L183.886 387.075L188.949 403.306L195.521 402.882L189.499 386.216H183.062Z" fill="#919191"/>
<path d="M256.003 401.561H164.423V404.203H256.003V401.561Z" fill="#B2474D"/>
<path d="M96.1899 374.584C95.4302 378.738 93.7244 390.559 96.1719 402.678C96.3518 403.566 97.1347 404.202 98.0396 404.202H167.922C164.317 388.619 167.922 373.02 167.922 373.02H98.0615C97.1424 373.021 96.3557 373.679 96.1899 374.584Z" fill="#B2474D"/>
<path d="M93.7192 374.584C92.9595 378.738 91.2538 390.559 93.7012 402.678C93.8812 403.566 94.664 404.202 95.569 404.202H165.452C161.848 388.619 165.452 373.02 165.452 373.02H95.5921C94.6718 373.021 93.8851 373.679 93.7192 374.584Z" fill="#DD6B6D"/>
<path d="M195.182 389.35C187.07 389.236 183.062 386.216 183.062 386.216H189.499C189.499 386.216 192.101 389.168 195.182 389.35Z" fill="#F4BE67"/>
<path d="M204.31 385.548C204.31 385.548 203.279 389.35 194.834 389.35C198.131 389.22 199.983 385.548 199.983 385.548H204.31Z" fill="#F29F4E"/>
<path fill-rule="evenodd" clip-rule="evenodd" d="M593.639 244.99C593.619 243.834 589.653 242.951 584.461 242.853C584.25 237.307 583.303 233.12 582.163 233.12C581.014 233.12 580.061 237.37 579.861 242.973C575.067 243.316 571.527 244.298 571.546 245.396C571.567 246.486 575.103 247.336 579.864 247.509C580.078 253.043 581.024 257.218 582.163 257.218C583.303 257.218 584.253 253.021 584.461 247.467C589.688 247.185 593.661 246.151 593.639 244.99Z" fill="white"/>
<path fill-rule="evenodd" clip-rule="evenodd" d="M117.747 29.1799C117.736 28.5179 115.465 28.0128 112.492 27.9562C112.371 24.7811 111.829 22.3838 111.177 22.3838C110.519 22.3838 109.974 24.8171 109.858 28.0243C107.114 28.221 105.088 28.7827 105.098 29.4113C105.11 30.0348 107.135 30.5219 109.86 30.6209C109.982 33.7895 110.524 36.1792 111.176 36.1792C111.829 36.1792 112.373 33.7767 112.492 30.5965C115.485 30.4384 117.759 29.8458 117.747 29.1799Z" fill="white"/>
<path fill-rule="evenodd" clip-rule="evenodd" d="M232.739 274.712C232.727 274.05 230.457 273.544 227.484 273.488C227.363 270.313 226.821 267.916 226.169 267.916C225.511 267.916 224.966 270.349 224.85 273.556C222.106 273.753 220.079 274.314 220.09 274.943C220.102 275.566 222.126 276.054 224.851 276.153C224.974 279.321 225.516 281.711 226.168 281.711C226.821 281.711 227.364 279.308 227.484 276.128C230.476 275.969 232.752 275.376 232.739 274.712Z" fill="white"/>
<path fill-rule="evenodd" clip-rule="evenodd" d="M333.18 18.4401C333.18 17.8 326.836 17.2678 318.5 17.1637C322.445 12.0091 324.898 7.75552 324.396 7.39174C323.892 7.02667 320.724 10.5051 316.717 15.3358C316.609 7.02024 316.079 0.699707 315.441 0.699707C314.788 0.699707 314.249 7.30176 314.159 15.8872C309.201 11.0218 305.302 7.44316 304.82 7.8725C304.366 8.27484 307.292 12.3253 311.861 17.1675C303.779 17.2897 297.701 17.8116 297.701 18.4389C297.701 19.097 304.436 19.642 313.147 19.7243C308.992 24.9291 305.991 29.0451 306.472 29.4783C306.907 29.8729 310.226 26.9395 314.18 22.434C314.313 30.3048 314.827 36.1793 315.443 36.1793C316.07 36.1793 316.595 30.0863 316.714 21.9918C321.595 26.5397 325.677 29.45 326.076 28.9924C326.501 28.509 322.908 24.6411 318.02 19.7217C326.589 19.6305 333.18 19.0919 333.18 18.4401Z" fill="white"/>
<path fill-rule="evenodd" clip-rule="evenodd" d="M18.3279 203.261C18.3279 202.934 15.0821 202.662 10.817 202.608C12.8352 199.971 14.0898 197.794 13.8339 197.608C13.5769 197.42 11.9546 199.202 9.90434 201.673C9.84907 197.418 9.57784 194.184 9.25133 194.184C8.91712 194.184 8.64075 197.562 8.59576 201.955C6.05957 199.465 4.06456 197.635 3.81776 197.855C3.58509 198.061 5.08264 200.134 7.41958 202.611C3.2843 202.673 0.174805 202.94 0.174805 203.261C0.174805 203.598 3.62108 203.877 8.07772 203.918C5.9516 206.582 4.41677 208.687 4.66229 208.91C4.88468 209.111 6.58275 207.61 8.60604 205.305C8.67417 209.333 8.93769 212.338 9.25262 212.338C9.57398 212.338 9.84136 209.221 9.90306 205.078C12.4007 207.406 14.4882 208.894 14.6939 208.66C14.9111 208.413 13.073 206.434 10.5715 203.916C14.9561 203.871 18.3279 203.596 18.3279 203.261Z" fill="white"/>
</svg>
        </svg>
