<svg width="44" height="45" viewBox="0 0 44 45" fill="none" xmlns="http://www.w3.org/2000/svg">
<circle cx="22.0001" cy="22.291" r="22" fill="#869F58"/>
<path fill-rule="evenodd" clip-rule="evenodd" d="M14.7789 24.266C14.4309 23.9197 14.2354 23.4501 14.2354 22.9604C14.2354 22.4707 14.4309 22.001 14.7789 21.6547L25.2794 11.2074C25.4506 11.031 25.6554 10.8903 25.8819 10.7935C26.1083 10.6967 26.3519 10.6458 26.5984 10.6436C26.8448 10.6415 27.0893 10.6882 27.3174 10.7811C27.5455 10.8739 27.7528 11.0111 27.927 11.1845C28.1013 11.3579 28.2391 11.5641 28.3325 11.791C28.4258 12.018 28.4728 12.2612 28.4706 12.5064C28.4685 12.7516 28.4173 12.994 28.32 13.2193C28.2227 13.4446 28.0813 13.6484 27.904 13.8187L18.7159 22.9604L27.904 32.102C28.2421 32.4503 28.4292 32.9168 28.425 33.401C28.4208 33.8853 28.2256 34.3485 27.8814 34.6909C27.5373 35.0333 27.0717 35.2275 26.585 35.2317C26.0983 35.2359 25.6295 35.0498 25.2794 34.7134L14.7789 24.266Z" fill="white"/>
</svg>
