<svg width="45" height="44" viewBox="0 0 45 44" fill="none" xmlns="http://www.w3.org/2000/svg">
    <g id="[button] left">
        <circle id="Ellipse 13" cx="22.4824" cy="22" r="22" fill="#869F58"/>
        <path id="Vector" fill-rule="evenodd" clip-rule="evenodd" d="M15.2612 23.975C14.9132 23.6287 14.7177 23.1591 14.7177 22.6694C14.7177 22.1796 14.9132 21.71 15.2612 21.3637L25.7617 10.9163C25.9329 10.74 26.1377 10.5993 26.3642 10.5025C26.5906 10.4057 26.8342 10.3547 27.0807 10.3526C27.3271 10.3505 27.5716 10.3972 27.7997 10.4901C28.0278 10.5829 28.2351 10.7201 28.4093 10.8935C28.5836 11.0669 28.7214 11.2731 28.8148 11.5C28.9081 11.727 28.9551 11.9702 28.9529 12.2154C28.9508 12.4606 28.8996 12.7029 28.8023 12.9283C28.705 13.1536 28.5636 13.3574 28.3863 13.5277L19.1982 22.6694L28.3863 31.811C28.7244 32.1593 28.9115 32.6258 28.9073 33.11C28.9031 33.5942 28.7079 34.0574 28.3637 34.3999C28.0196 34.7423 27.554 34.9365 27.0673 34.9407C26.5806 34.9449 26.1118 34.7588 25.7617 34.4224L15.2612 23.975Z" fill="#F9F9F9"/>
    </g>
</svg>
