<svg width="20" height="18" viewBox="0 0 20 18" fill="none" xmlns="http://www.w3.org/2000/svg">
    <g id="[icon] heart" transform="scale(0.8)">
    <path fill-rule="evenodd" clip-rule="evenodd" d="M5.40168 1.00127C3.78118 1.00127 2.40286 1.58328 1.43664 2.6446C0.479304 3.6945 0 5.13241 0 6.72375C0 9.48799 1.40748 11.6905 3.19536 13.4036C4.97563 15.109 7.21492 16.4062 9.06874 17.3762C9.2042 17.4473 9.35481 17.4846 9.50779 17.4851C9.66076 17.4855 9.81159 17.449 9.94746 17.3788C11.8025 16.4189 14.0406 15.1116 15.8221 13.3972C17.61 11.6791 19.02 9.46897 19.02 6.72375C19.02 5.12607 18.5382 3.68943 17.5796 2.63952C16.6121 1.58074 15.2338 1 13.6183 1C12.254 1 11.1254 1.50593 10.267 2.45947C9.97372 2.79 9.7197 3.15338 9.51 3.54234C9.3003 3.15338 9.04628 2.79 8.753 2.45947C7.89457 1.50593 6.76605 1.00127 5.40168 1.00127Z" fill="#869F58"/>
    </g>
</svg>
