<svg width="20" height="18" viewBox="0 0 20 18" fill="none" xmlns="http://www.w3.org/2000/svg">
<g id="[icon] heart" transform="scale(0.8)">
<path id="Vector" fill-rule="evenodd" clip-rule="evenodd" d="M1.4369 2.40075C2.40329 1.33924 3.78312 0.755859 5.40265 0.755859C6.87887 0.755859 8.45527 1.45338 9.51171 2.818C10.5618 1.45465 12.1319 0.755859 13.6208 0.755859C15.2365 0.755859 16.6138 1.33671 17.5827 2.39568C18.5415 3.44577 19.0234 4.88394 19.0234 6.47937C19.0234 9.22635 17.6119 11.4369 15.8249 13.1553C14.0431 14.87 11.8047 16.1775 9.94925 17.1376C9.81335 17.2079 9.6625 17.2443 9.50949 17.2439C9.35649 17.2434 9.20586 17.2061 9.07036 17.135C7.21495 16.1648 4.97653 14.8674 3.19467 13.1617C1.40773 11.4483 0 9.24537 0 6.48064C0 4.88901 0.47939 3.45084 1.4369 2.40075ZM2.84337 3.68166C2.26632 4.31577 1.90234 5.26314 1.90234 6.48064C1.90234 8.54024 2.93722 10.2802 4.51109 11.7869C5.96448 13.1794 7.80848 14.3043 9.51424 15.2175C11.2073 14.317 13.0526 13.1832 14.5073 11.7844C16.0837 10.2663 17.1211 8.51868 17.1211 6.48064C17.1211 5.25934 16.7558 4.31197 16.1775 3.67786C15.6093 3.05769 14.7622 2.65947 13.6208 2.65947C12.383 2.65947 10.9664 3.45592 10.416 5.13251C10.3537 5.32328 10.2327 5.48947 10.0703 5.60731C9.90789 5.72516 9.71237 5.78862 9.51171 5.78862C9.31104 5.78862 9.11552 5.72516 8.95311 5.60731C8.79069 5.48947 8.66971 5.32328 8.60746 5.13251C8.05832 3.45845 6.62649 2.65947 5.40265 2.65947C4.25744 2.65947 3.41153 3.05769 2.84337 3.68166Z" fill="#8A8A8A"/>
</g>
</svg>
