<svg width="37" height="37" viewBox="0 0 37 37" fill="none" xmlns="http://www.w3.org/2000/svg">
<g id="Arhive">
<path id="Rectangle 1" d="M8 12.5V26.5C8 28.3856 8 29.3284 8.58579 29.9142C9.17157 30.5 10.1144 30.5 12 30.5H25C26.8856 30.5 27.8284 30.5 28.4142 29.9142C29 29.3284 29 28.3856 29 26.5V12.5M8 12.5H29M8 12.5H5.4C5.21144 12.5 5.11716 12.5 5.05858 12.4414C5 12.3828 5 12.2886 5 12.1V10.5C5 8.61438 5 7.67157 5.58579 7.08579C6.17157 6.5 7.11438 6.5 9 6.5H28C29.8856 6.5 30.8284 6.5 31.4142 7.08579C32 7.67157 32 8.61438 32 10.5V12.1C32 12.2886 32 12.3828 31.9414 12.4414C31.8828 12.5 31.7886 12.5 31.6 12.5H29" stroke="#8A8A8A" stroke-width="2"/>
<path id="Vector 55" d="M15.5 24.5H21.5" stroke="#8A8A8A" stroke-width="2" stroke-linecap="round"/>
</g>
</svg>
