<svg width="24" height="20" viewBox="0 0 24 20" fill="none" xmlns="http://www.w3.org/2000/svg">
<g id="Group 3747">
<path id="Vector 10" d="M0.274414 5.04874V2.52912C0.274414 2.52912 3.38429 3.58633 5.48688 3.88556C10.6702 4.62322 13.3342 0.378018 18.5397 0.937752C20.6412 1.16372 23.7953 2.11928 23.7953 2.11928V4.74708C23.7953 4.74708 20.6374 3.72218 18.5397 3.4978C13.3559 2.94331 10.6696 6.86301 5.48688 6.29791C3.40598 6.07102 0.274414 5.04874 0.274414 5.04874Z" fill="#1A6140"/>
<path id="Vector 11" d="M0.274414 11.4638V8.94416C0.274414 8.94416 3.38429 10.0014 5.48688 10.3006C10.6702 11.0383 13.3342 6.79306 18.5397 7.35279C20.6412 7.57876 23.7953 8.53432 23.7953 8.53432V11.1621C23.7953 11.1621 20.6374 10.1372 18.5397 9.91284C13.3559 9.35835 10.6696 13.278 5.48688 12.713C3.40598 12.4861 0.274414 11.4638 0.274414 11.4638Z" fill="#1A6140"/>
<path id="Vector 12" d="M0.274414 17.8788V15.3592C0.274414 15.3592 3.38429 16.4164 5.48688 16.7156C10.6702 17.4533 13.3342 13.2081 18.5397 13.7678C20.6412 13.9938 23.7953 14.9494 23.7953 14.9494V17.5772C23.7953 17.5772 20.6374 16.5523 18.5397 16.3279C13.3559 15.7734 10.6696 19.6931 5.48688 19.128C3.40598 18.9011 0.274414 17.8788 0.274414 17.8788Z" fill="#1A6140"/>
</g>
</svg>
