<svg width="77" height="24" viewBox="0 0 77 24" fill="none" xmlns="http://www.w3.org/2000/svg">
<g id="Group">
<path id="Vector" d="M76.2498 4.77283L68.5338 22.1128H64.9606L67.4298 16.6168L61.4986 4.77283H65.1798L69.1218 12.8728L72.6858 4.77283H76.2498ZM59.7498 18.0928H56.3298V17.1358C55.2286 17.9707 53.8804 18.4132 52.4986 18.3928C48.7278 18.3928 45.7697 15.3328 45.7697 11.4328C45.7697 7.53283 48.7278 4.47284 52.4986 4.47284C53.8804 4.45247 55.2286 4.89496 56.3298 5.72983V4.77283H59.7498V18.0928ZM52.9726 7.35283C50.8186 7.35283 49.1926 9.10783 49.1926 11.4328C49.1926 13.7578 50.8186 15.5128 52.9726 15.5128C55.1266 15.5128 56.7526 13.7578 56.7526 11.4328C56.7526 9.10783 55.1266 7.35283 52.9726 7.35283ZM29.9297 4.77283H33.3497V5.72983C34.4519 4.89537 35.8013 4.45295 37.1837 4.47284C40.9547 4.47284 43.9097 7.52983 43.9097 11.4328C43.9097 15.3358 40.9547 18.3928 37.1837 18.3928C35.8521 18.4128 34.5495 18.0025 33.4697 17.2228V22.1128H29.9297V4.77283ZM32.9297 11.4328C32.9297 13.7578 34.5557 15.5128 36.7097 15.5128C38.8637 15.5128 40.4897 13.7578 40.4897 11.4328C40.4897 9.10783 38.8637 7.35283 36.7097 7.35283C34.5557 7.35283 32.9297 9.10783 32.9297 11.4328Z" fill="#00DE5A"/>
<path id="Vector_2" d="M24.2891 12C24.2891 14.3734 23.5853 16.6935 22.2667 18.6668C20.9481 20.6402 19.074 22.1783 16.8813 23.0866C14.6886 23.9948 12.2758 24.2325 9.948 23.7694C7.62023 23.3064 5.48202 22.1635 3.80379 20.4853C2.12556 18.807 0.982667 16.6689 0.519643 14.3411C0.0566207 12.0133 0.294265 9.60051 1.20252 7.40778C2.11077 5.21511 3.64885 3.34094 5.62223 2.02236C7.59563 0.703786 9.91569 0 12.2891 0C15.4717 0 18.5239 1.26428 20.7744 3.51472C23.0248 5.76517 24.2891 8.81742 24.2891 12ZM14.7971 5.82V12.798L9.89806 5.82H6.10906V18.18H9.78406V11.199L14.6831 18.18H18.4691V5.82H14.7971Z" fill="#00DE5A"/>
</g>
</svg>
