<svg width="44" height="44" viewBox="0 0 44 44" fill="none" xmlns="http://www.w3.org/2000/svg">
<g id="Icons/account_circle_filled_24px">
<path id="icon" fill-rule="evenodd" clip-rule="evenodd" d="M22.0001 3.66699C11.8801 3.66699 3.66675 11.8803 3.66675 22.0003C3.66675 32.1203 11.8801 40.3337 22.0001 40.3337C32.1201 40.3337 40.3334 32.1203 40.3334 22.0003C40.3334 11.8803 32.1201 3.66699 22.0001 3.66699ZM33.6601 30.8553C31.0384 27.6653 24.6767 26.5837 22.0001 26.5837C19.3234 26.5837 12.9617 27.6653 10.3401 30.8553C8.47008 28.3987 7.33341 25.337 7.33341 22.0003C7.33341 13.9153 13.9151 7.33366 22.0001 7.33366C30.0851 7.33366 36.6667 13.9153 36.6667 22.0003C36.6667 25.337 35.5301 28.3987 33.6601 30.8553ZM15.5834 17.417C15.5834 13.8603 18.4434 11.0003 22.0001 11.0003C25.5567 11.0003 28.4167 13.8603 28.4167 17.417C28.4167 20.9737 25.5567 23.8337 22.0001 23.8337C18.4434 23.8337 15.5834 20.9737 15.5834 17.417Z" fill="#B0B0B0"/>
</g>
</svg>
