<svg width="45" height="45" viewBox="0 0 45 45" fill="none" xmlns="http://www.w3.org/2000/svg">
<circle cx="22.9752" cy="22.291" r="22" fill="#E0E0E0"/>
<path fill-rule="evenodd" clip-rule="evenodd" d="M30.1965 24.266C30.5444 23.9197 30.7399 23.4501 30.7399 22.9604C30.7399 22.4707 30.5444 22.001 30.1965 21.6547L19.696 11.2074C19.5247 11.031 19.3199 10.8903 19.0935 10.7935C18.867 10.6967 18.6234 10.6458 18.377 10.6436C18.1305 10.6415 17.8861 10.6882 17.658 10.7811C17.4298 10.8739 17.2226 11.0111 17.0483 11.1845C16.874 11.3579 16.7362 11.5641 16.6429 11.791C16.5495 12.018 16.5026 12.2612 16.5047 12.5064C16.5069 12.7516 16.5581 12.994 16.6553 13.2193C16.7526 13.4446 16.894 13.6484 17.0713 13.8187L26.2595 22.9604L17.0713 32.102C16.7332 32.4503 16.5461 32.9168 16.5503 33.401C16.5546 33.8853 16.7498 34.3485 17.0939 34.6909C17.4381 35.0333 17.9036 35.2275 18.3903 35.2317C18.877 35.2359 19.3459 35.0498 19.696 34.7134L30.1965 24.266Z" fill="white"/>
</svg>
