<svg width="45" height="44" viewBox="0 0 45 44" fill="none" xmlns="http://www.w3.org/2000/svg">
<g id="[button] right">
<circle id="Ellipse 12" cx="22.4824" cy="22" r="22" fill="#869F58"/>
<path id="Vector" fill-rule="evenodd" clip-rule="evenodd" d="M29.7037 23.975C30.0516 23.6287 30.2471 23.1591 30.2471 22.6694C30.2471 22.1796 30.0516 21.71 29.7037 21.3637L19.2032 10.9163C19.0319 10.74 18.8271 10.5993 18.6007 10.5025C18.3742 10.4057 18.1306 10.3547 17.8842 10.3526C17.6377 10.3505 17.3933 10.3972 17.1652 10.4901C16.937 10.5829 16.7298 10.7201 16.5555 10.8935C16.3812 11.0669 16.2434 11.2731 16.1501 11.5C16.0567 11.727 16.0098 11.9702 16.0119 12.2154C16.0141 12.4606 16.0653 12.7029 16.1625 12.9283C16.2598 13.1536 16.4012 13.3574 16.5785 13.5277L25.7667 22.6694L16.5785 31.811C16.2404 32.1593 16.0533 32.6258 16.0575 33.11C16.0618 33.5942 16.257 34.0574 16.6011 34.3999C16.9453 34.7423 17.4108 34.9365 17.8975 34.9407C18.3842 34.9449 18.8531 34.7588 19.2032 34.4224L29.7037 23.975Z" fill="#F9F9F9"/>
</g>
</svg>
