<svg width="42" height="42" viewBox="0 0 42 42" fill="none" xmlns="http://www.w3.org/2000/svg">
<g id="Frame 3710">
<path id="Vector" fill-rule="evenodd" clip-rule="evenodd" d="M26.5651 24.9433C27.8843 23.2418 28.5061 21.1014 28.3038 18.9576C28.1016 16.8138 27.0905 14.8276 25.4764 13.403C23.8622 11.9785 21.7662 11.2226 19.6147 11.2892C17.4633 11.3558 15.418 12.2399 13.895 13.7615C12.3706 15.2842 11.484 17.3311 11.4159 19.4851C11.3477 21.639 12.1031 23.7379 13.5281 25.3541C14.9531 26.9702 16.9405 27.9819 19.0853 28.1831C21.2301 28.3842 23.3708 27.7597 25.0712 26.4367L25.1167 26.4843L29.6046 30.975C29.7029 31.0733 29.8196 31.1513 29.948 31.2045C30.0764 31.2578 30.2141 31.2852 30.3531 31.2852C30.4921 31.2852 30.6297 31.2578 30.7582 31.2045C30.8866 31.1513 31.0033 31.0733 31.1016 30.975C31.1999 30.8767 31.2778 30.7599 31.331 30.6314C31.3842 30.503 31.4116 30.3653 31.4116 30.2262C31.4116 30.0871 31.3842 29.9494 31.331 29.8209C31.2778 29.6925 31.1999 29.5757 31.1016 29.4774L26.6127 24.9877C26.5972 24.9725 26.5813 24.9577 26.5651 24.9433ZM24.3687 15.2591C24.9661 15.847 25.4411 16.5474 25.7665 17.3199C26.0919 18.0924 26.2612 18.9217 26.2646 19.76C26.268 20.5983 26.1055 21.4289 25.7864 22.2041C25.4673 22.9792 24.998 23.6834 24.4054 24.2762C23.8129 24.8689 23.109 25.3385 22.3341 25.6577C21.5593 25.9769 20.729 26.1395 19.8911 26.1361C19.0531 26.1327 18.2242 25.9633 17.452 25.6378C16.6798 25.3123 15.9797 24.837 15.392 24.2395C14.2176 23.0453 13.5624 21.4352 13.5692 19.76C13.5761 18.0848 14.2443 16.4801 15.4284 15.2956C16.6125 14.111 18.2165 13.4425 19.8911 13.4357C21.5656 13.4288 23.175 14.0843 24.3687 15.2591Z" fill="#869F58"/>
</g>
</svg>
