<svg width="37" height="37" viewBox="0 0 37 37" fill="none" xmlns="http://www.w3.org/2000/svg">
<g id="Setting_line">
<path id="Subtract" d="M21.6801 5.67404H20.6801V5.72391L20.6851 5.77354L21.6801 5.67404ZM21.6801 5.67402H22.6801V5.62414L22.6751 5.57451L21.6801 5.67402ZM21.7539 6.41195L22.7489 6.31245V6.31245L21.7539 6.41195ZM22.5517 9.09124L22.9344 8.16736L22.5517 9.09124ZM25.0104 7.76086L25.6437 8.53482L25.0104 7.76086ZM25.5844 7.29128L24.9511 6.51732V6.51732L25.5844 7.29128ZM28.2651 7.42498L27.558 8.13208V8.13209L28.2651 7.42498ZM29.948 9.10793L30.6551 8.40082V8.40082L29.948 9.10793ZM30.8796 10.4051L31.8783 10.3553V10.3553L30.8796 10.4051ZM30.0817 11.7886L29.3078 11.1554V11.1554L30.0817 11.7886ZM29.6121 12.3626L30.3861 12.9958L29.6121 12.3626ZM28.2817 14.8213L27.3578 15.204L27.3578 15.204L28.2817 14.8213ZM30.961 15.6191L30.8615 16.6142H30.8615L30.961 15.6191ZM31.699 15.6929L31.7985 14.6979L31.699 15.6929ZM33.2415 16.107L33.9829 15.436L33.9829 15.436L33.2415 16.107ZM33.2415 21.6391L33.9829 22.3101L33.9829 22.3101L33.2415 21.6391ZM31.699 22.0531V23.0531H31.7489L31.7985 23.0482L31.699 22.0531ZM31.699 22.0531V21.0531H31.6491L31.5995 21.0581L31.699 22.0531ZM30.9616 22.1269L30.8621 21.1319L30.9616 22.1269ZM29.6127 25.3834L30.3866 24.7502L29.6127 25.3834ZM30.0818 25.9568L29.3078 26.59H29.3078L30.0818 25.9568ZM30.8797 27.3403L31.8784 27.3901V27.3901L30.8797 27.3403ZM26.9679 31.252L27.0177 32.2508H27.0177L26.9679 31.252ZM25.5844 30.4542L26.2177 29.6802V29.6802L25.5844 30.4542ZM25.0105 29.9846L24.3773 30.7585V30.7585L25.0105 29.9846ZM21.754 31.3335L20.7589 31.234L21.754 31.3335ZM21.6801 32.0721L20.6851 31.9725L20.6801 32.0222V32.0721H21.6801ZM21.6801 32.0721L22.6751 32.1716L22.6801 32.1219V32.0721H21.6801ZM21.266 33.6145L21.937 34.356L21.937 34.356L21.266 33.6145ZM15.734 33.6145L15.063 34.356L15.063 34.356L15.734 33.6145ZM15.3199 32.0721L14.3249 32.1716V32.1716L15.3199 32.0721ZM15.2461 31.3341L14.2511 31.4336L15.2461 31.3341ZM14.4483 28.6548L14.8309 27.7309L14.8309 27.7309L14.4483 28.6548ZM11.9896 29.9852L12.6228 30.7591L11.9896 29.9852ZM11.4155 30.4548L10.7823 29.6809H10.7823L11.4155 30.4548ZM10.032 31.2527L9.98221 32.2515H9.98222L10.032 31.2527ZM8.73481 30.3211L9.44192 29.614L8.73481 30.3211ZM7.05186 28.6382L7.75897 27.9311L7.05186 28.6382ZM6.91816 25.9575L7.69212 26.5907H7.69212L6.91816 25.9575ZM7.3878 25.3835L6.61385 24.7502H6.61385L7.3878 25.3835ZM6.0389 22.1269L6.1384 21.1319H6.1384L6.0389 22.1269ZM5.30099 22.0531L5.40049 21.0581L5.35087 21.0531H5.30099V22.0531ZM5.30097 22.0531L5.20147 23.0482L5.2511 23.0531H5.30097V22.0531ZM3.75855 21.6391L4.5 20.9681H4.5L3.75855 21.6391ZM3.75855 16.107L3.0171 15.436L3.01709 15.436L3.75855 16.107ZM5.30099 15.6929L5.20149 14.6979H5.20149L5.30099 15.6929ZM6.03946 15.6191L5.93996 14.6241H5.93996L6.03946 15.6191ZM7.38837 12.3625L8.16233 11.7293L7.38837 12.3625ZM6.91823 11.7879L6.14427 12.4212H6.14427L6.91823 11.7879ZM7.05193 9.10725L7.75904 9.81435H7.75904L7.05193 9.10725ZM8.73488 7.4243L8.02777 6.71719H8.02777L8.73488 7.4243ZM11.4156 7.2906L12.0488 6.51664L11.4156 7.2906ZM11.9896 7.76027L11.3564 8.53423H11.3564L11.9896 7.76027ZM15.2462 6.41137L14.2511 6.31186L15.2462 6.41137ZM15.3199 5.67404L14.3249 5.57453V5.57454L15.3199 5.67404ZM15.734 4.13159L15.063 3.39014L15.063 3.39014L15.734 4.13159ZM21.266 4.13159L20.595 4.87305V4.87305L21.266 4.13159ZM22.6801 5.67404V5.67402H20.6801V5.67404H22.6801ZM22.7489 6.31245L22.6751 5.57454L20.6851 5.77354L20.7589 6.51146L22.7489 6.31245ZM22.9344 8.16736C23.1083 8.23939 23.0638 8.381 22.9765 8.03433C22.889 7.68625 22.834 7.16302 22.7489 6.31245L20.7589 6.51146C20.8372 7.29442 20.9047 7.99635 21.037 8.52228C21.1697 9.04962 21.4424 9.71411 22.1691 10.0151L22.9344 8.16736ZM24.3772 6.9869C23.7156 7.52821 23.3068 7.8593 22.9987 8.04351C22.6919 8.22697 22.7605 8.09534 22.9344 8.16736L22.1691 10.0151C22.8958 10.3161 23.5584 10.0391 24.0251 9.76002C24.4906 9.48169 25.0347 9.03309 25.6437 8.53482L24.3772 6.9869ZM24.9511 6.51732L24.3772 6.9869L25.6437 8.53482L26.2176 8.06524L24.9511 6.51732ZM27.0177 5.49465C26.5429 5.47097 26.1585 5.64144 25.8523 5.83232C25.5704 6.0081 25.2633 6.26189 24.9511 6.51732L26.2176 8.06524C26.5712 7.77595 26.7634 7.62121 26.9106 7.52943C27.0335 7.45275 27.008 7.49665 26.918 7.49216L27.0177 5.49465ZM28.9722 6.71787C28.687 6.43265 28.4066 6.14956 28.1436 5.9466C27.858 5.72621 27.4924 5.51832 27.0177 5.49465L26.918 7.49216C26.8281 7.48768 26.807 7.44145 26.9218 7.52999C27.0591 7.63596 27.2349 7.80905 27.558 8.13208L28.9722 6.71787ZM30.6551 8.40082L28.9722 6.71787L27.558 8.13209L29.2409 9.81503L30.6551 8.40082ZM31.8783 10.3553C31.8547 9.88057 31.6468 9.515 31.4264 9.2294C31.2234 8.96639 30.9403 8.68604 30.6551 8.40082L29.2409 9.81503C29.5639 10.1381 29.737 10.3139 29.843 10.4512C29.9315 10.566 29.8853 10.5449 29.8808 10.455L31.8783 10.3553ZM30.8557 12.4219C31.1111 12.1097 31.3649 11.8025 31.5407 11.5206C31.7316 11.2145 31.902 10.8301 31.8783 10.3553L29.8808 10.455C29.8763 10.365 29.9202 10.3395 29.8436 10.4624C29.7518 10.6096 29.597 10.8018 29.3078 11.1554L30.8557 12.4219ZM30.3861 12.9958L30.8557 12.4219L29.3078 11.1554L28.8381 11.7294L30.3861 12.9958ZM29.2056 14.4386C29.2776 14.6125 29.146 14.6811 29.3294 14.3743C29.5137 14.0663 29.8448 13.6574 30.3861 12.9958L28.8381 11.7294C28.3399 12.3384 27.8913 12.8824 27.6129 13.3479C27.3339 13.8146 27.0568 14.4773 27.3578 15.204L29.2056 14.4386ZM31.0605 14.6241C30.2099 14.5391 29.6867 14.4841 29.3386 14.3965C28.992 14.3093 29.1336 14.2647 29.2056 14.4386L27.3578 15.204C27.6588 15.9307 28.3233 16.2034 28.8507 16.3361C29.3766 16.4684 30.0785 16.5359 30.8615 16.6142L31.0605 14.6241ZM31.7985 14.6979L31.0605 14.6241L30.8615 16.6142L31.5995 16.688L31.7985 14.6979ZM33.9829 15.436C33.6639 15.0836 33.2716 14.9323 32.9201 14.8508C32.5965 14.7758 32.1999 14.738 31.7985 14.6979L31.5995 16.688C32.0541 16.7334 32.2994 16.7599 32.4684 16.7991C32.6095 16.8318 32.5604 16.8448 32.5 16.778L33.9829 15.436ZM34.5 17.683C34.5 17.2797 34.5019 16.8812 34.4595 16.5518C34.4134 16.194 34.3019 15.7885 33.9829 15.436L32.5 16.778C32.4396 16.7113 32.4574 16.6637 32.4759 16.8074C32.4981 16.9794 32.5 17.2262 32.5 17.683H34.5ZM34.5 20.0631V17.683H32.5V20.0631H34.5ZM33.9829 22.3101C34.3019 21.9576 34.4134 21.5521 34.4595 21.1943C34.5019 20.8648 34.5 20.4664 34.5 20.0631H32.5C32.5 20.5199 32.4981 20.7666 32.4759 20.9387C32.4574 21.0824 32.4396 21.0348 32.5 20.9681L33.9829 22.3101ZM31.7985 23.0482C32.1999 23.008 32.5965 22.9703 32.9201 22.8953C33.2716 22.8138 33.6639 22.6625 33.9829 22.3101L32.5 20.9681C32.5604 20.9013 32.6095 20.9143 32.4684 20.947C32.2994 20.9862 32.0541 21.0127 31.5995 21.0581L31.7985 23.0482ZM31.699 23.0531H31.699V21.0531H31.699V23.0531ZM31.0611 23.1219L31.7985 23.0482L31.5995 21.0581L30.8621 21.1319L31.0611 23.1219ZM29.2062 23.3074C29.1341 23.4813 28.9925 23.4368 29.3392 23.3495C29.6873 23.262 30.2105 23.207 31.0611 23.1219L30.8621 21.1319C30.0791 21.2101 29.3772 21.2777 28.8512 21.41C28.3239 21.5427 27.6594 21.8153 27.3584 22.5421L29.2062 23.3074ZM30.3866 24.7502C29.8453 24.0886 29.5142 23.6798 29.33 23.3717C29.1466 23.0649 29.2782 23.1335 29.2062 23.3074L27.3584 22.5421C27.0574 23.2688 27.3344 23.9314 27.6135 24.3981C27.8918 24.8636 28.3404 25.4077 28.8387 26.0167L30.3866 24.7502ZM30.8557 25.3236L30.3866 24.7502L28.8387 26.0167L29.3078 26.59L30.8557 25.3236ZM31.8784 27.3901C31.9021 26.9153 31.7316 26.5309 31.5407 26.2248C31.365 25.9429 31.1112 25.6358 30.8557 25.3236L29.3078 26.59C29.5971 26.9436 29.7519 27.1358 29.8436 27.283C29.9203 27.406 29.8764 27.3804 29.8809 27.2905L31.8784 27.3901ZM30.6552 29.3446C30.9404 29.0594 31.2235 28.779 31.4265 28.516C31.6469 28.2304 31.8547 27.8649 31.8784 27.3901L29.8809 27.2905C29.8854 27.2005 29.9316 27.1795 29.8431 27.2942C29.7371 27.4315 29.564 27.6074 29.241 27.9304L30.6552 29.3446ZM28.9722 31.0276L30.6552 29.3446L29.241 27.9304L27.558 29.6133L28.9722 31.0276ZM27.0177 32.2508C27.4925 32.2271 27.8581 32.0192 28.1437 31.7988C28.4067 31.5959 28.687 31.3128 28.9722 31.0276L27.558 29.6133C27.235 29.9364 27.0592 30.1095 26.9218 30.2154C26.8071 30.304 26.8282 30.2578 26.9181 30.2533L27.0177 32.2508ZM24.9512 31.2281C25.2634 31.4835 25.5705 31.7373 25.8524 31.9131C26.1585 32.104 26.543 32.2745 27.0177 32.2508L26.9181 30.2533C27.008 30.2488 27.0336 30.2927 26.9106 30.216C26.7635 30.1242 26.5713 29.9695 26.2177 29.6802L24.9512 31.2281ZM24.3773 30.7585L24.9512 31.2281L26.2177 29.6802L25.6437 29.2106L24.3773 30.7585ZM22.9345 29.5781C22.7606 29.6501 22.692 29.5185 22.9988 29.7019C23.3068 29.8861 23.7157 30.2172 24.3773 30.7585L25.6437 29.2106C25.0347 28.7123 24.4907 28.2637 24.0252 27.9854C23.5585 27.7063 22.8958 27.4293 22.1691 27.7303L22.9345 29.5781ZM22.749 31.433C22.8341 30.5824 22.889 30.0592 22.9766 29.7111C23.0638 29.3644 23.1084 29.506 22.9345 29.5781L22.1691 27.7303C21.4424 28.0313 21.1697 28.6958 21.0371 29.2231C20.9047 29.7491 20.8372 30.451 20.7589 31.234L22.749 31.433ZM22.6751 32.1716L22.749 31.433L20.7589 31.234L20.6851 31.9725L22.6751 32.1716ZM22.6801 32.0721V32.0721H20.6801V32.0721H22.6801ZM21.937 34.356C22.2895 34.037 22.4408 33.6446 22.5222 33.2932C22.5973 32.9696 22.635 32.5729 22.6751 32.1716L20.6851 31.9726C20.6396 32.4271 20.6131 32.6724 20.5739 32.8414C20.5412 32.9826 20.5283 32.9335 20.595 32.873L21.937 34.356ZM19.69 34.873C20.0934 34.873 20.4918 34.875 20.8213 34.8325C21.1791 34.7864 21.5846 34.6749 21.937 34.356L20.595 32.873C20.6618 32.8126 20.7094 32.8304 20.5656 32.8489C20.3936 32.8711 20.1469 32.873 19.69 32.873V34.873ZM17.31 34.873H19.69V32.873H17.31V34.873ZM15.063 34.356C15.4154 34.6749 15.8209 34.7864 16.1787 34.8325C16.5082 34.875 16.9066 34.873 17.31 34.873V32.873C16.8531 32.873 16.6064 32.8711 16.4344 32.8489C16.2906 32.8304 16.3382 32.8126 16.405 32.873L15.063 34.356ZM14.3249 32.1716C14.365 32.5729 14.4027 32.9695 14.4777 33.2932C14.5592 33.6446 14.7105 34.037 15.063 34.356L16.405 32.873C16.4717 32.9335 16.4588 32.9826 16.4261 32.8414C16.3869 32.6724 16.3604 32.4271 16.3149 31.9725L14.3249 32.1716ZM14.2511 31.4336L14.3249 32.1716L16.3149 31.9726L16.2411 31.2346L14.2511 31.4336ZM14.0656 29.5786C13.8917 29.5066 13.9362 29.365 14.0234 29.7117C14.111 30.0598 14.166 30.583 14.2511 31.4336L16.2411 31.2346C16.1628 30.4516 16.0953 29.7497 15.963 29.2237C15.8303 28.6964 15.5576 28.0319 14.8309 27.7309L14.0656 29.5786ZM12.6228 30.7591C13.2844 30.2178 13.6932 29.8867 14.0013 29.7025C14.3081 29.519 14.2395 29.6507 14.0656 29.5787L14.8309 27.7309C14.1042 27.4299 13.4415 27.7069 12.9748 27.986C12.5094 28.2643 11.9653 28.7129 11.3563 29.2112L12.6228 30.7591ZM12.0487 31.2288L12.6228 30.7591L11.3563 29.2112L10.7823 29.6809L12.0487 31.2288ZM9.98222 32.2515C10.457 32.2751 10.8414 32.1047 11.1475 31.9138C11.4294 31.738 11.7366 31.4842 12.0487 31.2288L10.7823 29.6809C10.4287 29.9702 10.2365 30.1249 10.0893 30.2167C9.96634 30.2934 9.99192 30.2495 10.0818 30.2539L9.98222 32.2515ZM8.02771 31.0282C8.31293 31.3135 8.59327 31.5966 8.85628 31.7995C9.14189 32.0199 9.50746 32.2278 9.98221 32.2515L10.0818 30.2539C10.1718 30.2584 10.1929 30.3047 10.0781 30.2161C9.94079 30.1102 9.76495 29.9371 9.44192 29.614L8.02771 31.0282ZM6.34476 29.3453L8.02771 31.0282L9.44192 29.614L7.75897 27.9311L6.34476 29.3453ZM5.12153 27.3908C5.14521 27.8655 5.35309 28.2311 5.57349 28.5167C5.77644 28.7797 6.05953 29.0601 6.34476 29.3453L7.75897 27.9311C7.43594 27.608 7.26284 27.4322 7.15687 27.2949C7.06834 27.1801 7.11456 27.2012 7.11905 27.2912L5.12153 27.3908ZM6.1442 25.3243C5.88878 25.6364 5.63499 25.9436 5.45921 26.2255C5.26833 26.5316 5.09785 26.916 5.12153 27.3908L7.11905 27.2912C7.12353 27.3811 7.07964 27.4067 7.15631 27.2837C7.24809 27.1365 7.40283 26.9443 7.69212 26.5907L6.1442 25.3243ZM6.61385 24.7502L6.1442 25.3243L7.69212 26.5907L8.16176 26.0167L6.61385 24.7502ZM7.79431 23.3075C7.72228 23.1336 7.85391 23.0649 7.67045 23.3717C7.48624 23.6798 7.15515 24.0887 6.61385 24.7502L8.16176 26.0167C8.66004 25.4077 9.10863 24.8636 9.38696 24.3982C9.66604 23.9315 9.94308 23.2688 9.64207 22.5421L7.79431 23.3075ZM5.93939 23.122C6.78997 23.207 7.31319 23.262 7.66128 23.3496C8.00795 23.4368 7.86633 23.4814 7.79431 23.3075L9.64207 22.5421C9.34106 21.8154 8.67657 21.5427 8.14922 21.41C7.62329 21.2777 6.92137 21.2102 6.1384 21.1319L5.93939 23.122ZM5.20149 23.0482L5.9394 23.122L6.1384 21.1319L5.40049 21.0581L5.20149 23.0482ZM5.30097 23.0531H5.30099V21.0531H5.30097V23.0531ZM3.01709 22.3101C3.33605 22.6625 3.72843 22.8138 4.07987 22.8953C4.40349 22.9703 4.80011 23.008 5.20147 23.0482L5.40048 21.0581C4.94592 21.0126 4.7006 20.9862 4.53163 20.947C4.39046 20.9143 4.43959 20.9013 4.5 20.9681L3.01709 22.3101ZM2.5 20.0631C2.5 20.4664 2.49806 20.8648 2.54052 21.1943C2.58663 21.5521 2.69813 21.9576 3.01709 22.3101L4.5 20.9681C4.56041 21.0348 4.54264 21.0824 4.52412 20.9387C4.50194 20.7666 4.5 20.5199 4.5 20.0631H2.5ZM2.5 17.683V20.0631H4.5V17.683H2.5ZM3.01709 15.436C2.69813 15.7885 2.58663 16.194 2.54052 16.5518C2.49806 16.8812 2.5 17.2797 2.5 17.683H4.5C4.5 17.2262 4.50194 16.9794 4.52412 16.8074C4.54264 16.6637 4.56041 16.7113 4.5 16.778L3.01709 15.436ZM5.20149 14.6979C4.80013 14.738 4.4035 14.7758 4.07987 14.8508C3.72844 14.9323 3.33606 15.0836 3.0171 15.436L4.5 16.778C4.43959 16.8448 4.39046 16.8318 4.53163 16.7991C4.70061 16.7599 4.94593 16.7334 5.4005 16.688L5.20149 14.6979ZM5.93996 14.6241L5.20149 14.6979L5.4005 16.688L6.13897 16.6141L5.93996 14.6241ZM7.79487 14.4386C7.8669 14.2647 8.00851 14.3092 7.66184 14.3964C7.31376 14.484 6.79053 14.539 5.93996 14.6241L6.13896 16.6141C6.92193 16.5358 7.62386 16.4683 8.14979 16.336C8.67713 16.2033 9.34162 15.9306 9.64263 15.2039L7.79487 14.4386ZM6.61441 12.9958C7.15571 13.6574 7.4868 14.0662 7.67102 14.3743C7.85448 14.6811 7.72284 14.6125 7.79487 14.4386L9.64263 15.2039C9.94364 14.4772 9.6666 13.8145 9.38752 13.3478C9.10919 12.8824 8.6606 12.3383 8.16233 11.7293L6.61441 12.9958ZM6.14427 12.4212L6.61441 12.9958L8.16233 11.7293L7.69219 11.1547L6.14427 12.4212ZM5.1216 10.3547C5.09792 10.8294 5.2684 11.2138 5.45928 11.52C5.63505 11.8019 5.88885 12.109 6.14427 12.4212L7.69219 11.1547C7.4029 10.8011 7.24816 10.6089 7.15638 10.4617C7.07971 10.3388 7.1236 10.3644 7.11912 10.4543L5.1216 10.3547ZM6.34483 8.40014C6.0596 8.68536 5.77651 8.96571 5.57356 9.22872C5.35316 9.51432 5.14528 9.87989 5.1216 10.3547L7.11912 10.4543C7.11463 10.5442 7.06841 10.5653 7.15694 10.4506C7.26291 10.3132 7.43601 10.1374 7.75904 9.81435L6.34483 8.40014ZM8.02777 6.71719L6.34483 8.40014L7.75904 9.81435L9.44199 8.13141L8.02777 6.71719ZM9.98228 5.49397C9.50753 5.51764 9.14196 5.72553 8.85635 5.94592C8.59334 6.14888 8.313 6.43197 8.02777 6.71719L9.44199 8.13141C9.76502 7.80837 9.94086 7.63528 10.0782 7.52931C10.1929 7.44077 10.1718 7.487 10.0819 7.49148L9.98228 5.49397ZM12.0488 6.51664C11.7366 6.26121 11.4295 6.00742 11.1476 5.83164C10.8415 5.64076 10.457 5.47029 9.98228 5.49397L10.0819 7.49148C9.99199 7.49597 9.96641 7.45207 10.0894 7.52875C10.2366 7.62053 10.4288 7.77527 10.7823 8.06455L12.0488 6.51664ZM12.6229 6.98632L12.0488 6.51664L10.7823 8.06455L11.3564 8.53423L12.6229 6.98632ZM14.0656 8.16677C14.2395 8.09475 14.3082 8.22638 14.0014 8.04292C13.6933 7.85871 13.2844 7.52762 12.6229 6.98632L11.3564 8.53423C11.9654 9.03251 12.5095 9.4811 12.9749 9.75943C13.4416 10.0385 14.1043 10.3155 14.831 10.0145L14.0656 8.16677ZM14.2511 6.31186C14.1661 7.16243 14.1111 7.68566 14.0235 8.03374C13.9363 8.38041 13.8918 8.2388 14.0656 8.16677L14.831 10.0145C15.5577 9.71352 15.8304 9.04904 15.9631 8.52169C16.0954 7.99576 16.1629 7.29383 16.2412 6.51087L14.2511 6.31186ZM14.3249 5.57454L14.2511 6.31186L16.2412 6.51087L16.3149 5.77354L14.3249 5.57454ZM15.063 3.39014C14.7105 3.7091 14.5592 4.10149 14.4777 4.45292C14.4027 4.77654 14.365 5.17317 14.3249 5.57453L16.3149 5.77354C16.3604 5.31897 16.3869 5.07365 16.4261 4.90467C16.4588 4.76351 16.4717 4.81263 16.405 4.87305L15.063 3.39014ZM17.31 2.87305C16.9066 2.87305 16.5082 2.8711 16.1787 2.91357C15.8209 2.95968 15.4154 3.07118 15.063 3.39014L16.405 4.87305C16.3382 4.93346 16.2906 4.91569 16.4344 4.89716C16.6064 4.87499 16.8531 4.87305 17.31 4.87305V2.87305ZM19.69 2.87305H17.31V4.87305H19.69V2.87305ZM21.937 3.39014C21.5846 3.07118 21.1791 2.95968 20.8213 2.91357C20.4918 2.8711 20.0934 2.87305 19.69 2.87305V4.87305C20.1469 4.87305 20.3936 4.87499 20.5656 4.89716C20.7094 4.91569 20.6618 4.93346 20.595 4.87305L21.937 3.39014ZM22.6751 5.57451C22.635 5.17316 22.5973 4.77653 22.5222 4.45291C22.4408 4.10148 22.2895 3.7091 21.937 3.39014L20.595 4.87305C20.5283 4.81263 20.5412 4.76351 20.5739 4.90467C20.6131 5.07365 20.6396 5.31896 20.6851 5.77353L22.6751 5.57451ZM23.5 18.873C23.5 21.6345 21.2614 23.873 18.5 23.873V25.873C22.366 25.873 25.5 22.739 25.5 18.873H23.5ZM18.5 13.873C21.2614 13.873 23.5 16.1116 23.5 18.873H25.5C25.5 15.0071 22.366 11.873 18.5 11.873V13.873ZM13.5 18.873C13.5 16.1116 15.7386 13.873 18.5 13.873V11.873C14.634 11.873 11.5 15.0071 11.5 18.873H13.5ZM18.5 23.873C15.7386 23.873 13.5 21.6345 13.5 18.873H11.5C11.5 22.739 14.634 25.873 18.5 25.873V23.873Z" fill="#F9F9F9"/>
</g>
</svg>
