<svg width="129" height="41" viewBox="0 0 129 41" fill="none" xmlns="http://www.w3.org/2000/svg">
<g id="Group 3768">
<g id="Group 3684">
<g id="Group 3683">
<g id="Group">
<path id="Vector" d="M50.3004 38.617C50.4888 38.3916 50.6273 38.1154 50.6606 37.8336C50.6606 37.8336 50.6606 37.8336 50.6606 37.828C50.716 37.0784 50.7714 36.3401 50.8268 35.63C50.8601 35.4046 50.8435 35.1791 50.7548 34.9593C49.2363 31.2228 47.7178 27.4863 46.1938 23.7553C45.6729 22.6564 45.4346 20.898 43.9272 20.8867C31.6131 20.8867 19.3046 20.8867 6.99055 20.8867C6.18144 20.8867 5.67158 21.4278 5.38895 22.1266C3.87047 25.8631 2.35199 29.5997 0.827976 33.3306C0.589675 34.0632 0.0853635 34.7734 0.0742798 35.5455C0.129699 36.3119 0.185121 37.0164 0.268249 37.9294C0.401254 38.6113 1.11061 39.1806 1.7701 39.1806C3.33845 39.1806 4.90126 39.1806 6.46961 39.1806H17.7584C28.288 39.1411 38.8287 39.2538 49.3527 39.158C49.7794 39.1073 50.0953 38.8988 50.3004 38.6113V38.617Z" fill="#6B7D45"/>
<path id="Vector_2" d="M50.4277 36.4697C50.7768 36.0471 50.9652 35.4778 50.7546 34.9593L46.1937 23.7553L45.5286 22.1266C45.246 21.4278 44.7251 20.8867 43.927 20.8867H6.99038C6.18127 20.8867 5.67142 21.4278 5.38878 22.1266C3.8703 25.8631 2.35183 29.5997 0.827809 33.3306C0.606134 33.8716 0.38446 34.4183 0.162785 34.9593C-0.258398 36.002 0.794559 37.1009 1.76439 37.1009H43.3119C45.2238 37.1009 47.1524 37.1742 49.0643 37.1009C49.0921 37.1009 49.1198 37.1009 49.1475 37.1009C49.1586 37.1009 49.1696 37.1009 49.1807 37.1009C49.2417 37.1009 49.3026 37.0897 49.3692 37.084C49.8402 37.0277 50.1949 36.7966 50.4221 36.4754L50.4277 36.4697Z" fill="#90A36B"/>
<path id="Vector_3" d="M25.6332 17.9004H25.6222C25.1788 17.9004 24.7743 17.6524 24.5526 17.2635C23.8654 16.0462 21.8703 13.0987 18.1351 11.9772C14.3334 10.8387 10.0661 12.0053 6.9959 15.0318C6.50267 15.5164 5.71019 15.5052 5.23358 15.0036C4.75698 14.502 4.76806 13.6961 5.26129 13.2114C8.97435 9.55376 14.1726 8.15044 18.8389 9.54813C22.1419 10.5344 24.3309 12.6647 25.6111 14.3386C27.7669 11.1712 30.5212 8.42096 33.6579 6.3019C36.9719 4.06448 40.6407 2.54845 44.5588 1.78198C45.2349 1.65235 45.8888 2.10322 46.0163 2.79078C46.1437 3.47835 45.7004 4.14338 45.0243 4.27301C41.4276 4.97185 38.0692 6.36389 35.0323 8.41533C31.6684 10.6809 28.7866 13.7524 26.6973 17.2861C26.4701 17.6693 26.0655 17.9004 25.6277 17.9004H25.6332Z" fill="#90A36B"/>
<g id="Group_2">
<path id="Vector_4" d="M35.5481 32.6094H15.1595V34.5199H35.5481V32.6094Z" fill="#6B7D45"/>
<path id="Vector_5" d="M12.9482 32.6094H10.8922V34.5199H12.9482V32.6094Z" fill="#6B7D45"/>
<path id="Vector_6" d="M8.67524 32.6094H6.6192V34.5199H8.67524V32.6094Z" fill="#6B7D45"/>
<path id="Vector_7" d="M44.3042 32.6094H37.7703V34.5199H44.3042V32.6094Z" fill="#6B7D45"/>
</g>
</g>
</g>
</g>
<g id="Group 3684_2">
<g id="Group 3683_2">
<g id="Group 3681">
<path id="Vector_8" d="M94.941 34.2672C95.0305 32.4201 95.1137 30.5924 95.2032 28.6802C91.3083 28.7973 87.0104 28.8884 82.6038 28.9404L82.8212 24.355C85.5969 24.1924 88.379 24.0363 91.1164 23.8282L90.8222 18.716C86.2045 19.0412 80.6915 19.3209 76.5727 19.4185C76.0802 19.438 75.7796 19.2103 75.7988 18.7485L75.8755 17.1095C80.231 16.6477 85.1236 16.29 89.8692 16.0624L89.5175 11.1128C85.0341 11.3599 80.3269 11.6786 76.1058 12.1079L76.2145 9.83798C80.9729 9.3957 85.9039 9.08351 90.4768 8.80383L90.0931 3.60059C82.7892 4.00384 74.3086 4.64774 67.0687 5.60384L67.8554 10.7811L70.1002 10.5079L69.6973 19.1258C69.5182 22.9111 71.8079 24.6607 75.8372 24.5632C76.061 24.5762 76.2849 24.5827 76.5535 24.5567L76.3488 28.9729C72.4922 28.9924 68.6676 28.9729 65.1052 28.9209C65.0157 30.7745 64.9326 32.6347 64.843 34.4884L94.9474 34.2607L94.941 34.2672Z" fill="#90A36B"/>
<path id="Vector_9" d="M109.67 17.5191L109.811 14.5338C109.094 14.5858 108.423 14.5923 107.751 14.6444C104.163 14.8525 102.232 13.1549 102.379 10.0005L102.494 7.52241C101.867 7.57444 101.279 7.672 100.652 7.73054L100.045 2.52079C107.822 1.59071 115.81 0.927296 123.114 0.478516L123.587 5.68176C118.79 5.95493 113.77 6.34518 108.691 6.859L108.589 9.00533C108.576 9.29802 108.794 9.4346 109.062 9.40859L123.587 8.51103L123.971 13.6297C121.412 13.7988 118.726 14.007 115.989 14.1696L115.848 17.2395C120.389 17.0639 124.757 16.9533 128.608 16.9273C128.518 18.7809 128.441 20.5305 128.352 22.3322C123.197 22.4817 118.035 22.6313 112.881 22.7744C107.419 22.924 101.957 23.0671 96.5013 23.2037C96.4949 22.5403 96.4885 21.8704 96.4885 21.1939C96.4885 20.1143 96.4885 19.0541 96.5013 18.0004L109.67 17.5322V17.5191Z" fill="#90A36B"/>
<path id="Vector_10" d="M119.008 25.318C113.725 25.1359 107.022 25.2204 101.964 25.4416L102.219 30.8529C107.278 30.6253 113.13 30.5342 117.959 30.7033C118.362 30.7033 118.56 30.944 118.515 31.3603L117.588 39.77L123.798 40.4789L124.668 31.1846C125.109 27.1716 123.031 25.4416 119.002 25.318H119.008Z" fill="#90A36B"/>
</g>
</g>
</g>
</g>
</svg>
