<svg width="520" height="134" viewBox="0 0 520 134" fill="none" xmlns="http://www.w3.org/2000/svg">
<path d="M7.11594 25.3654H44.5239V32.4774H7.11594V25.3654ZM1.85194 40.0374H49.3959V47.2614H1.85194V40.0374ZM21.1159 28.9494H30.1319V43.1734H21.1159V28.9494ZM7.11594 3.24538H44.1879V10.4134H16.2999V28.0534H7.11594V3.24538ZM13.5559 14.3334H42.9559V21.2774H13.5559V14.3334ZM53.3676 25.1414H100.912V32.1974H53.3676V25.1414ZM72.5756 16.8534H81.5916V27.1574H72.5756V16.8534ZM58.5756 34.8854H95.4236V52.6374H86.4076V41.9414H58.5756V34.8854ZM59.0236 14.3334H95.8716V21.4454H59.0236V14.3334ZM59.0236 2.18138H95.4236V9.23738H67.9836V18.1974H59.0236V2.18138ZM107.851 60.0294L105.835 54.7094C110.707 53.0294 113.283 50.0054 113.227 46.7574L113.115 40.2054L116.251 45.6934C115.299 46.5334 114.067 46.9254 112.723 46.9254C109.643 46.9254 106.787 44.9094 106.787 41.3254C106.787 37.9654 109.531 35.7254 113.003 35.7254C117.371 35.7254 119.779 39.1974 119.779 45.0214C119.779 52.2454 115.635 57.6774 107.851 60.0294ZM156.409 15.7894H165.425V22.6774H156.409V15.7894ZM154.729 4.08538H162.569V5.26138C162.569 11.9814 156.745 17.7494 141.737 18.5894L138.993 11.8694C151.649 11.3094 154.729 7.66938 154.729 5.26138V4.08538ZM159.489 4.08538H167.329V5.26138C167.329 7.72538 170.353 11.3094 183.065 11.8694L180.321 18.5894C165.313 17.7494 159.489 12.0934 159.489 5.26138V4.08538ZM141.569 1.17338H180.545V7.94938H141.569V1.17338ZM141.457 31.2454H180.433V37.9094H141.457V31.2454ZM137.313 19.7654H184.857V26.8214H137.313V19.7654ZM160.889 38.8614C171.081 38.8614 177.073 41.3254 177.073 45.8054C177.073 50.2854 171.081 52.6934 160.889 52.6934C150.697 52.6934 144.705 50.2854 144.705 45.8054C144.705 41.3254 150.697 38.8614 160.889 38.8614ZM160.889 44.6854C156.185 44.6854 154.113 44.8534 154.113 45.8054C154.113 46.7014 156.185 46.8694 160.889 46.8694C165.593 46.8694 167.721 46.7014 167.721 45.8054C167.721 44.8534 165.593 44.6854 160.889 44.6854ZM156.409 28.1654H165.425V35.1094H156.409V28.1654ZM188.773 26.4294H236.317V33.5414H188.773V26.4294ZM194.317 44.6854H230.941V51.8534H194.317V44.6854ZM194.317 36.4534H203.333V47.0374H194.317V36.4534ZM212.573 1.50938C224.109 1.50938 231.893 5.76538 231.893 12.4854C231.893 19.3174 224.109 23.5174 212.573 23.5174C201.037 23.5174 193.253 19.3174 193.253 12.4854C193.253 5.76538 201.037 1.50938 212.573 1.50938ZM212.573 8.62138C206.133 8.62138 202.605 9.79738 202.605 12.4854C202.605 15.2294 206.133 16.4054 212.573 16.4054C219.013 16.4054 222.541 15.2294 222.541 12.4854C222.541 9.79738 219.013 8.62138 212.573 8.62138ZM258.853 2.06938H291.837V9.18138H258.853V2.06938ZM253.141 17.9734H300.685V25.0854H253.141V17.9734ZM286.517 2.06938H295.421V5.76538C295.421 9.51738 295.421 14.2214 294.077 20.1014L285.173 19.3174C286.517 13.5494 286.517 9.46138 286.517 5.76538V2.06938ZM258.237 27.7734H295.141V43.3414H267.309V47.5974H258.293V36.7894H286.125V34.6614H258.237V27.7734ZM258.293 45.4694H296.485V52.4134H258.293V45.4694ZM328.401 0.725382C340.609 0.725382 347.721 3.86138 347.721 9.62938C347.721 15.3974 340.609 18.5334 328.401 18.5334C316.193 18.5334 309.081 15.3974 309.081 9.62938C309.081 3.86138 316.193 0.725382 328.401 0.725382ZM328.401 7.27738C321.345 7.27738 318.489 7.89338 318.489 9.62938C318.489 11.4774 321.345 11.9814 328.401 11.9814C335.457 11.9814 338.313 11.4774 338.313 9.62938C338.313 7.89338 335.457 7.27738 328.401 7.27738ZM304.601 20.3814H352.145V27.4374H304.601V20.3814ZM309.865 29.5654H346.545V43.9574H318.825V47.6534H309.921V37.7974H337.641V36.1734H309.865V29.5654ZM309.921 45.6934H347.833V52.4134H309.921V45.6934ZM370.089 4.14138H395.625V30.1254H370.089V4.14138ZM386.721 11.2534H378.993V23.0134H386.721V11.2534ZM401.561 0.10938H410.577V38.3014H401.561V0.10938ZM408.113 14.7814H417.129V22.1734H408.113V14.7814ZM376.081 44.6854H412.201V51.8534H376.081V44.6854ZM376.081 34.4934H385.153V48.4374H376.081V34.4934ZM459.741 19.3174H468.757V26.7094H459.741V19.3174ZM452.965 -0.00261879H462.037V52.5254H452.965V-0.00261879ZM421.773 4.98138H430.789V37.6854H421.773V4.98138ZM421.773 32.5334H426.477C433.813 32.5334 442.045 32.0294 450.389 30.4054L451.285 37.7414C442.717 39.5334 434.093 39.9814 426.477 39.9814H421.773V32.5334ZM477.544 13.3814H514.392V20.4934H477.544V13.3814ZM472 25.0854H519.544V32.1974H472V25.0854ZM477.544 1.90138H486.56V16.9094H477.544V1.90138ZM476.984 44.4054H514.672V51.5734H476.984V44.4054ZM476.984 35.7814H486.056V46.3094H476.984V35.7814ZM10.7559 85.4214H17.6439V93.5974C17.6439 106.085 15.0119 118.125 6.16394 123.501L0.619938 116.837C8.79594 111.909 10.7559 102.501 10.7559 93.5974V85.4214ZM12.6039 85.4214H19.5479V92.9254C19.5479 102.221 21.0599 110.621 28.5639 114.709L23.4119 121.877C14.3959 116.893 12.6039 105.693 12.6039 92.9254V85.4214ZM38.6439 81.0534H47.2119V133.581H38.6439V81.0534ZM33.4359 101.101H41.3879V108.325H33.4359V101.101ZM27.4439 81.7254H35.8439V131.397H27.4439V81.7254ZM53.3676 120.925H100.912V128.205H53.3676V120.925ZM72.5756 111.685H81.5916V123.837H72.5756V111.685ZM58.5196 84.1894H95.8716V102.557H67.5356V110.453H58.5756V95.5574H86.9116V91.3014H58.5196V84.1894ZM58.5756 106.981H97.0476V114.149H58.5756V106.981ZM104.883 106.029H152.427V113.085H104.883V106.029ZM124.483 110.677H133.667V121.205H124.483V110.677ZM110.147 125.685H147.275V132.853H110.147V125.685ZM110.147 116.893H119.275V127.421H110.147V116.893ZM128.627 81.8374C140.051 81.8374 147.779 86.2054 147.779 92.9254C147.779 99.7014 140.051 104.013 128.627 104.013C117.203 104.013 109.475 99.7014 109.475 92.9254C109.475 86.2054 117.203 81.8374 128.627 81.8374ZM128.627 88.9494C122.747 88.9494 119.219 90.1254 119.219 92.9254C119.219 95.6694 122.747 96.9014 128.627 96.9014C134.507 96.9014 138.035 95.6694 138.035 92.9254C138.035 90.1254 134.507 88.9494 128.627 88.9494ZM193.444 112.693C204.476 112.693 211.476 116.669 211.476 123.221C211.476 129.829 204.476 133.749 193.444 133.749C182.412 133.749 175.356 129.829 175.356 123.221C175.356 116.669 182.412 112.693 193.444 112.693ZM193.444 119.749C187.34 119.749 184.372 120.701 184.372 123.221C184.372 125.797 187.34 126.805 193.444 126.805C199.548 126.805 202.516 125.797 202.516 123.221C202.516 120.701 199.548 119.749 193.444 119.749ZM201.788 81.1094H210.804V111.685H201.788V81.1094ZM208.34 92.7574H217.356V100.149H208.34V92.7574ZM170.316 84.4134H179.276V90.1814H187.116V84.4134H196.076V109.389H170.316V84.4134ZM179.276 97.0694V102.389H187.116V97.0694H179.276ZM222.671 83.7414H231.631V89.6214H239.303V83.7414H248.151V108.605H222.671V83.7414ZM231.631 96.3974V101.437H239.303V96.3974H231.631ZM246.247 92.5334H257.895V99.7574H246.247V92.5334ZM255.991 81.1094H265.063V109.893H255.991V81.1094ZM229.503 111.909H238.463V115.717H256.103V111.909H265.063V133.021H229.503V111.909ZM238.463 122.605V125.909H256.103V122.605H238.463Z" fill="#F9F9F9"/>
</svg>
