<svg width="96" height="22" viewBox="0 0 96 22" fill="none" xmlns="http://www.w3.org/2000/svg">
<g id="Group">
<path id="Vector" d="M3.13922 12.2998V7.06741H0.415039V4.30722H3.13922V0.994994L6.47545 0.106934V4.30722H10.6277V7.06741H6.47545V12.2518C6.47545 13.6319 7.2195 14.4359 8.50359 14.4359C9.23564 14.4359 9.76367 14.2919 10.3277 13.8839L11.5158 16.368C10.6397 17.0521 9.46366 17.3761 8.20357 17.3761C4.96335 17.3641 3.13922 15.54 3.13922 12.2998Z" fill="#202632"/>
<path id="Vector_2" d="M11.6836 10.6678C11.6836 6.86352 14.6358 4.00732 18.6201 4.00732C22.6043 4.00732 25.5565 6.86352 25.5565 10.6678C25.5565 14.484 22.6043 17.3282 18.6201 17.3282C14.6358 17.3282 11.6836 14.472 11.6836 10.6678ZM18.6201 14.352C20.6602 14.352 22.1843 12.7799 22.1843 10.6678C22.1843 8.55563 20.6602 6.98353 18.6201 6.98353C16.5799 6.98353 15.0558 8.55563 15.0558 10.6678C15.0558 12.7799 16.5919 14.352 18.6201 14.352Z" fill="#202632"/>
<path id="Vector_3" d="M26.4209 14.004L29.7331 13.1159C29.9491 14.148 30.8972 14.7241 32.4453 14.7241C33.7054 14.7241 34.6295 14.148 34.6295 13.392C34.6295 12.8399 33.9814 12.4319 32.9973 12.2279L30.5252 11.7118C28.185 11.2198 26.7449 9.95973 26.7449 8.17161C26.7449 5.67544 28.9051 4.00732 32.0853 4.00732C34.9175 4.00732 37.0776 5.30341 37.6417 7.37955L34.5215 8.21961C34.3174 7.22354 33.3454 6.5635 31.9773 6.5635C30.8372 6.5635 30.0691 7.10353 30.0691 7.85959C30.0691 8.44763 30.5852 8.74765 31.4492 8.95166L34.3414 9.61171C36.5496 10.1037 37.8937 11.3518 37.8937 13.1399C37.8937 15.7561 35.7095 17.3282 32.1573 17.3282C29.0371 17.3282 26.8769 16.0681 26.4209 14.004Z" fill="#202632"/>
<path id="Vector_4" d="M38.6865 14.004L41.9988 13.1159C42.2148 14.148 43.1628 14.7241 44.7109 14.7241C45.971 14.7241 46.8951 14.148 46.8951 13.392C46.8951 12.8399 46.247 12.4319 45.263 12.2279L42.7908 11.7118C40.4506 11.2198 39.0105 9.95973 39.0105 8.17161C39.0105 5.67544 41.1707 4.00732 44.3509 4.00732C47.1831 4.00732 49.3432 5.30341 49.9073 7.37955L46.7871 8.21961C46.5831 7.22354 45.611 6.5635 44.2429 6.5635C43.1028 6.5635 42.3348 7.10353 42.3348 7.85959C42.3348 8.44763 42.8508 8.74765 43.7149 8.95166L46.6071 9.61171C48.8152 10.1037 50.1593 11.3518 50.1593 13.1399C50.1593 15.7561 47.9752 17.3282 44.4229 17.3282C41.3147 17.3282 39.1546 16.0681 38.6865 14.004Z" fill="#202632"/>
<path id="Vector_5" d="M79.9552 6.1793C78.8151 4.85921 77.207 4.13916 75.3949 4.13916C71.8546 4.13916 69.1904 6.93535 69.1904 10.6556C69.1904 14.3759 71.8546 17.172 75.3949 17.172C77.267 17.172 78.9591 16.38 80.0752 14.9759V16.992H81.9593V4.30717H79.9552V6.1793ZM75.7069 15.2039C73.1627 15.2039 71.3266 13.2838 71.3266 10.6436C71.3266 8.00342 73.1747 6.08329 75.7069 6.08329C78.119 6.08329 79.9192 7.79941 80.0752 10.2716V11.0156C79.9192 13.4878 78.119 15.2039 75.7069 15.2039Z" fill="#202632"/>
<path id="Vector_6" d="M93.4467 4.25879L89.2944 14.0035L85.2501 4.25879H83.042L88.1903 16.3436L86.1982 21.0599H88.2743L89.9905 16.9557L95.6428 4.25879H93.4467Z" fill="#202632"/>
<path id="Vector_7" d="M61.7275 4.13916C59.8554 4.13916 58.1633 4.93121 57.0472 6.33531V4.33117H55.1631V21.0483H57.1672V15.1079C58.3073 16.428 59.9154 17.148 61.7275 17.148C65.2678 17.148 67.932 14.3519 67.932 10.6316C67.932 6.91135 65.2678 4.13916 61.7275 4.13916ZM61.4155 15.2039C59.0033 15.2039 57.2032 13.4878 57.0472 11.0156V10.2716C57.2032 7.81141 59.0033 6.08329 61.4155 6.08329C63.9597 6.08329 65.7958 8.00342 65.7958 10.6436C65.7958 13.2838 63.9597 15.2039 61.4155 15.2039Z" fill="#202632"/>
</g>
</svg>
